<?xml version="1.0" encoding="UTF-8"?>
<svg width="254px" height="151px" viewBox="0 0 254 151" version="1.1" xmlns="http://www.w3.org/2000/svg" xmlns:xlink="http://www.w3.org/1999/xlink">
    <title>farmacia</title>
    <g id="farmacia" stroke="none" stroke-width="1" fill="none" fill-rule="evenodd">
        <g id="logo-farmacia" transform="translate(56.870968, 62.741935)" fill="#8C98A4" fill-rule="nonzero">
            <g id="Group">
                <path d="M4.04801252,22.3126117 L4.04801252,24.146525 C4.02873207,24.5130589 4.02873207,24.880339 4.04801252,25.2468729 C4.03413172,25.4608634 4.03413172,25.6755162 4.04801252,25.8895067 C2.98641515,25.9564505 1.93766042,25.6295896 1.10589635,24.9725501 C0.354750573,24.1847315 -0.0254494976,23.0247813 0.082518068,21.8541334 L0.082518068,7.03000094 C0.0498199646,5.67071554 0.329626113,4.32187022 0.900757976,3.08555911 C1.105618,2.65332779 1.3883992,2.26178669 1.73519302,1.93019374 C2.05262166,1.63393454 2.41320213,1.38664869 2.80484312,1.19662842 C3.07553709,1.07387931 3.35432187,0.969463229 3.63927816,0.884099031 C3.94877506,0.795053898 4.26419859,0.727644744 4.58322316,0.68236857 L5.95209766,0.572333772 L13.0656178,0.572333772 C13.6478715,0.572333772 14.0249868,0.572333772 14.1985061,0.462298975 L14.4499163,0.462298975 L14.4499163,0.68236857 C14.4844469,1.34534307 14.3549888,2.00663832 14.072801,2.60874165 C13.8789445,3.08111991 13.5369225,3.47921292 13.0972369,3.74423963 C12.6992369,3.98330642 12.2534123,4.13350833 11.7908294,4.18437882 L5.03977173,4.18437882 C4.85238066,4.19386137 4.67191842,4.25762672 4.52075621,4.36777015 C4.40285379,4.432434 4.30479278,4.52748427 4.23695576,4.64285714 C4.09246973,5.02988931 4.02820869,5.4418096 4.04801252,5.85400404 L4.04801252,10.2936025 L11.7908294,10.2936025 C11.8406208,11.231604 11.5628355,12.1579757 11.0042085,12.9168626 C10.4111581,13.5931181 9.5952318,13.9346845 8.76773753,13.8521584 L4.04801252,13.8521584 L4.04801252,22.3126117 Z" id="Path"></path>
                <path d="M30.8008329,23.7980814 C30.8949189,24.0364902 30.973581,24.2748989 31.0522431,24.4949685 C31.1309052,24.7150381 31.2064825,24.9167686 31.2728054,25.118499 C31.3553235,25.3278708 31.4270448,25.5425915 31.4933677,25.7603687 C30.9218444,25.9523566 30.3142239,26.0152771 29.7149877,25.9445241 C29.1978436,25.8895337 28.7013654,25.713246 28.2666799,25.4302643 C27.7268421,25.0886979 27.3127093,24.5178924 27.1183677,23.8347597 C26.9926626,23.5038912 26.7721003,22.8253433 26.4412568,21.8350301 L25.2767495,18.4407622 L16.4172396,18.4407622 C15.9452671,19.7619439 15.5519566,20.9371767 15.2211132,21.9305464 C14.8902697,22.9239161 14.6704786,23.6001716 14.5447735,23.930276 C14.3544292,24.5784882 13.9428162,25.1410934 13.3802662,25.5219599 C12.9514306,25.8047054 12.4602417,25.9810873 11.9481535,26.0362198 C11.3489724,26.1069074 10.7414225,26.0442552 10.1697735,25.8528285 C10.2263107,25.6332584 10.3000554,25.4183948 10.3903358,25.2101947 C10.3903358,25.0084642 10.5160409,24.8067338 10.594703,24.5866642 C10.6682237,24.3492743 10.7522842,24.1169786 10.8468844,23.8897771 C11.0011237,23.4488738 11.2556187,22.6969693 11.6180813,21.6332996 L12.8774458,17.9654731 L14.4499163,13.6015236 L15.9452671,9.21694254 C16.4172396,7.84150757 16.8267451,6.63036067 17.2038604,5.54911596 C17.5809757,4.46787125 17.8493522,3.71520267 17.9912524,3.31097762 C18.1661251,2.74596632 18.4089994,2.20386484 18.7146351,1.69636979 C18.9296787,1.35255699 19.1889163,1.03790066 19.485832,0.760309884 C19.699366,0.569315148 19.9514752,0.425530838 20.2254098,0.338509828 C20.6629085,0.21642157 21.1259378,0.21642157 21.5634365,0.338509828 C21.8372947,0.425702014 22.0893693,0.569466594 22.3030143,0.760309884 C22.5990424,1.03451184 22.8533581,1.34981534 23.058016,1.69636979 C23.3699089,2.20276062 23.6182704,2.74497056 23.7975939,3.31097762 C23.9394941,3.75111681 24.1909043,4.50302125 24.5687908,5.54911596 C24.9466772,6.59521066 25.3399877,7.82393257 25.8281553,9.21694254 C26.3163229,10.6099525 26.8037194,12.0602723 27.401397,13.6015236 C27.9990746,15.1427749 28.4401992,16.5732272 28.9754098,17.9677654 C29.5106205,19.3623037 29.8877358,20.5726864 30.2501983,21.635592 L30.8008329,23.7980814 Z M24.0968183,14.7721715 L22.9323109,11.1945124 C22.5390005,10.039147 22.1927331,8.99305229 21.9097039,8.07609565 C21.6266746,7.159139 21.2009739,5.98467037 20.9025207,5.01193219 C20.5716772,5.98467037 20.2254098,7.01166181 19.8791424,8.07609565 C19.532875,9.14052948 19.2182267,10.039147 18.8411114,11.1945124 C18.4639961,12.3498777 18.0853384,13.5251105 17.660409,14.7354933 L24.0968183,14.7721715 Z" id="Shape"></path>
                <path d="M37.0945708,22.3126117 L37.0945708,25.8719317 C36.0588533,25.9483448 35.0300767,25.6266458 34.1640226,24.9549751 C33.4190464,24.1633358 33.0442447,23.0041498 33.1568394,21.8365584 L33.1568394,6.40647042 C33.1200885,5.40739225 33.3024245,4.41229908 33.6912789,3.48978416 C34.0153078,2.77025487 34.5126259,2.14052801 35.1395866,1.65587087 C35.7901011,1.15947197 36.541564,0.808821908 37.342125,0.628115301 C38.2905257,0.369522948 39.2592357,0.190592537 40.2379693,0.0932239255 C41.6773665,0.00438934546 43.1185618,0.236251662 44.4556452,0.771771842 C45.1925363,1.07256492 45.8899025,1.46077407 46.5324784,1.92790134 C47.1417351,2.37831783 47.6732963,2.92358847 48.1064913,3.54250917 C48.6197065,4.20655445 49.0162607,4.95157938 49.2794818,5.74626164 C49.5837462,6.63747806 49.7222353,7.57601221 49.6882161,8.51623483 C49.6635896,9.87268271 49.2547366,11.1949725 48.5082849,12.3323027 C47.7070113,13.5052431 46.6034285,14.347315 45.3610303,14.7354933 C45.8388392,14.9396696 46.2559327,15.2616585 46.5725806,15.6707891 C46.9297128,16.1415604 47.2294717,16.652483 47.4656267,17.1929371 C47.717808,17.7797893 47.9854134,18.4399981 48.2522475,19.1376493 C48.5190816,19.8353005 48.7874581,20.5681017 49.1005641,21.2833278 C49.3177258,21.8071884 49.5702206,22.3159752 49.856337,22.80624 C50.1239424,23.2463792 50.3753525,23.6467836 50.5959149,23.9807086 C50.8304729,24.3429919 51.0934949,24.6863865 51.3825357,25.0077001 C51.2025243,25.2177371 50.9901381,25.3982616 50.753239,25.5425915 C50.5007318,25.6771443 50.2305258,25.7761607 49.9504231,25.8367817 C49.5764232,25.9101473 49.1915347,25.9101473 48.8175348,25.8367817 C48.3274912,25.7715962 47.8591348,25.5956437 47.4486603,25.3225219 C46.9594132,24.9947272 46.5375314,24.5777482 46.2054909,24.0938 C45.69608,23.3945862 45.2484157,22.6531851 44.8674643,21.8778214 C44.3954918,20.9608648 43.8602812,19.8047353 43.2942226,18.4285362 C43.0148541,17.7295117 42.5789711,17.1024495 42.0194342,16.5946229 C41.4696128,16.1670326 40.8461992,15.8416133 40.1793584,15.6341108 L39.817667,15.524076 L39.4875947,15.4140412 L38.8706372,15.2856673 L38.0840164,15.1206151 L37.0945708,14.9555629 L37.0945708,22.3126117 Z M40.2418253,3.76563529 C39.7007229,3.81219327 39.1700871,3.94105936 38.6685836,4.14770055 C38.3102625,4.29922844 37.9843945,4.5170766 37.7084435,4.78957021 C37.2545452,5.29269918 37.0122608,5.9489117 37.0313326,6.62348349 L37.0313326,11.8149864 L38.4966067,12.1450908 L39.8847611,12.3475853 C40.3721576,12.3475853 40.8757492,12.439281 41.3500353,12.439281 C42.4772842,12.5257751 43.59739,12.1995107 44.498061,11.5223244 C45.3001058,10.8101547 45.794443,9.72432521 45.8507403,8.55062071 C45.9496216,7.7633309 45.8301801,6.96422378 45.5052441,6.23912583 C45.2160562,5.62847063 44.7779447,5.0987829 44.2304557,4.69787454 C43.6573142,4.31668161 43.0147943,4.04962294 42.3387097,3.91158422 C41.6538328,3.74289568 40.9446055,3.69325479 40.2425965,3.76487116 L40.2418253,3.76563529 Z" id="Shape"></path>
                <path d="M73.8405605,22.3126117 L73.8405605,24.146525 C73.8205063,24.5130385 73.8205063,24.8803594 73.8405605,25.2468729 L73.8405605,25.8895067 C72.8048431,25.9659198 71.7760665,25.6442208 70.9100123,24.9725501 C70.1596378,24.1847315 69.7794377,23.0247813 69.8874053,21.8541334 L70.1395866,4.79262673 C69.557333,6.77401721 69.0059272,8.5903555 68.4552926,10.2943666 C68.2355015,11.0279319 67.9987441,11.7614972 67.7612154,12.5325049 L67.1002997,14.7706433 L66.4833421,16.6045566 C66.2951701,17.1738338 66.1378459,17.6506513 65.9959457,18.0174339 C65.7792726,18.6772291 65.3613566,19.2541739 64.7998193,19.66872 C64.3922208,19.9509971 63.9232812,20.1342365 63.4309448,20.2036114 C62.8932576,20.2405735 62.3542858,20.1526582 61.856932,19.9468635 L57.0415785,4.83006912 L57.1672836,22.3500541 L57.1672836,25.9277133 C56.1223118,26.0041263 55.085052,25.6839556 54.2089723,25.0107566 C53.4647673,24.2191174 53.0899656,23.0599313 53.2017892,21.8923399 L53.2017892,0.829081633 L53.3274943,0.829081633 L53.7686189,0.719046835 L54.8544641,0.719046835 C55.4901231,0.721007056 56.1216842,0.819976287 56.7269302,1.01247296 C57.3142939,1.22981578 57.8520202,1.56102931 58.308655,1.9867394 C58.889302,2.51153705 59.3738329,3.13201035 59.7407677,3.82065269 C60.2300521,4.736781 60.6355227,5.69449833 60.952318,6.68232155 C60.9983182,6.87509338 61.0560055,7.06494213 61.1250661,7.25083467 L61.4559096,8.3152685 C61.5816147,8.71872943 61.7073198,9.17720775 61.8646439,9.6540252 L62.2895734,11.1563058 C62.652036,12.3124353 63.0291512,13.6145138 63.4540807,15.0457303 L65.9088005,6.68002915 C66.2236914,5.68978055 66.6348687,4.73216291 67.1365459,3.82065269 C67.504096,3.13651676 67.9827143,2.51694202 68.5532346,1.9867394 C69.0096357,1.56526556 69.5438088,1.23498535 70.1264763,1.01400122 C70.7317366,0.821563838 71.3632883,0.722596068 71.9989424,0.720575096 L73.1009827,0.720575096 L73.5413362,0.830609894 L73.6670412,0.830609894 L73.8405605,22.3126117 Z" id="Path"></path>
                <path d="M96.1867619,23.7980814 C96.2808479,24.0364902 96.35951,24.2748989 96.438172,24.4949685 C96.5168341,24.7150381 96.5924114,24.9167686 96.6587344,25.118499 C96.7476791,25.3339838 96.8263411,25.5540534 96.8947206,25.7787078 C96.3232085,25.9707465 95.7155764,26.0336682 95.1163406,25.9628633 C94.5994366,25.9078697 94.1032095,25.7315773 93.668804,25.4486034 C93.1289662,25.1070371 92.7140622,24.5362315 92.5197206,23.8530988 C92.3940155,23.5222303 92.1734532,22.8436824 91.8433809,21.8533692 L90.6002115,18.4407622 L81.7715494,18.4407622 C81.2995769,19.7619439 80.9062665,20.9356485 80.5754231,21.9267258 L79.8959986,23.9264554 C79.7064523,24.5760724 79.2947607,25.1401356 78.7314913,25.5219599 C78.3026557,25.8047054 77.8114668,25.9810873 77.2993786,26.0362198 C76.7001975,26.1069074 76.0926476,26.0442552 75.5209986,25.8528285 C75.5775358,25.6332584 75.6512805,25.4183948 75.7415609,25.2101947 C75.7415609,25.0084642 75.867266,24.8067338 75.9459281,24.5866642 C76.0189347,24.3492743 76.1029952,24.1169786 76.1981095,23.8897771 C76.3523488,23.4488738 76.6068438,22.6969693 76.9693064,21.6332996 L78.2278997,17.9654731 L79.8049974,13.6015236 L81.378239,9.21694254 C81.8502115,7.84150757 82.2597171,6.63036067 82.6376036,5.54911596 C83.01549,4.46787125 83.2823242,3.71520267 83.4242244,3.31097762 C83.5990971,2.74596632 83.8419714,2.20386484 84.1476071,1.69636979 C84.3628912,1.35272715 84.6221047,1.03810017 84.918804,0.760309884 C85.132449,0.569466594 85.3845236,0.425702014 85.6583818,0.338509828 C86.0958805,0.21642157 86.5589098,0.21642157 86.9964084,0.338509828 C87.2703431,0.425530838 87.5224523,0.569315148 87.7359863,0.760309884 C88.0272507,1.03884491 88.2810142,1.35346392 88.490988,1.69636979 C88.8028808,2.20276062 89.0512424,2.74497056 89.2305658,3.31097762 C89.3724661,3.75111681 89.6246475,4.50302125 90.0017627,5.54911596 C90.378878,6.59521066 90.7729596,7.82393257 91.2611273,9.21694254 C91.7492949,10.6099525 92.2366913,12.0602723 92.8343689,13.6015236 C93.4320465,15.1427749 93.8731712,16.5732272 94.4083818,17.9677654 C94.9435925,19.3623037 95.3207077,20.5726864 95.6831703,21.635592 L96.1867619,23.7980814 Z M89.4511282,14.7721715 L88.2249251,11.2327189 C87.8308435,10.0773535 87.4845761,9.03125882 87.2015468,8.11430217 C86.9185175,7.19734553 86.493588,6.02287689 86.1943637,5.05013872 C85.8642914,6.02287689 85.518024,7.04986833 85.1717566,8.11430217 C84.8254892,9.17873601 84.5108408,10.0773535 84.1329543,11.2327189 C83.7550679,12.3880843 83.3617574,13.5625529 82.9530231,14.7736998 L89.4511282,14.7721715 Z" id="Shape"></path>
                <path d="M106.74599,26.201272 C103.910186,26.2114103 101.208155,25.0074594 99.3340164,22.8986998 C98.2621631,21.7036729 97.4338368,20.3144149 96.8947206,18.8075449 C96.2598255,16.997806 95.9507618,15.0916164 95.9816235,13.1759028 C95.950817,11.2539545 96.2598479,9.34150182 96.8947206,7.52515753 C97.4201565,6.02821076 98.2318652,4.6456426 99.285431,3.4531059 C100.222789,2.38877384 101.390642,1.54794455 102.701833,0.993369698 C103.972399,0.419168474 105.349628,0.113146031 106.74599,0.0947521866 C107.531042,0.0874029932 108.312189,0.205049391 109.05958,0.443195711 C109.665725,0.654301353 110.246384,0.9313349 110.790918,1.26922082 C111.219558,1.53520014 111.611077,1.85582153 111.955425,2.22285573 C112.179842,2.46601103 112.379999,2.73010123 112.553102,3.01143845 C112.490011,3.15137197 112.416547,3.28648323 112.333311,3.4156635 C112.26999,3.54132023 112.190682,3.65842127 112.097325,3.76410703 C112.015091,3.86301848 111.913249,3.944161 111.798101,4.00251575 C111.576129,4.16905954 111.305334,4.259213 111.026904,4.25926361 C110.745476,4.26188879 110.466656,4.20564634 110.208664,4.09421142 L109.390424,3.76410703 C109.036948,3.62348043 108.674147,3.507059 108.304579,3.4156635 C107.789418,3.29280622 107.260282,3.23706376 106.730566,3.24984717 C105.018509,3.26130913 103.390512,4.11407881 102.246056,5.59878444 C101.532526,6.52010107 100.998724,7.56522541 100.672043,8.6805229 C100.268632,10.1194115 100.077961,11.6086642 100.105984,13.1017822 C100.076865,14.6009917 100.267539,16.0964505 100.672043,17.5413806 C101.00695,18.6534474 101.540025,19.6971478 102.246056,20.6231191 C103.383571,22.1338051 105.022365,23.0026216 106.746761,23.0079705 C107.275773,23.0117922 107.803529,22.9564242 108.320003,22.8429183 C108.744932,22.7328835 109.0912,22.6045095 109.405848,22.4944747 L110.224088,22.1460312 C110.496318,22.074387 110.780959,22.0618754 111.058523,22.109353 C111.336953,22.1094036 111.607748,22.199557 111.82972,22.3661008 C112.041505,22.5290752 112.222674,22.7277254 112.36493,22.9529531 C112.451571,23.0722824 112.525243,23.2003484 112.584721,23.3350183 C112.4231,23.6352517 112.222134,23.9129991 111.987044,24.1610434 C111.647303,24.5328844 111.255074,24.8540871 110.822537,25.1146784 C110.276339,25.439822 109.695744,25.7045255 109.0912,25.9040252 C108.333196,26.1390256 107.539287,26.2396506 106.74599,26.201272 L106.74599,26.201272 Z" id="Path"></path>
                <path d="M114.205006,22.3126117 L114.205006,4.59013214 C114.097039,3.41948415 114.477239,2.259534 115.227613,1.47171541 C116.092896,0.788582714 117.127842,0.459242453 118.170501,0.535655506 L118.170501,21.816691 C118.264587,22.9835183 117.899811,24.1365913 117.179513,24.9496262 C116.331196,25.6373436 115.301648,25.9659198 114.268244,25.8856861 C114.282125,25.6716956 114.282125,25.4570428 114.268244,25.2430523 C114.286753,24.8770338 114.286753,24.509487 114.268244,24.1427043 C114.205006,23.6330292 114.205006,23.0270737 114.205006,22.3126117 Z" id="Path"></path>
                <path d="M140.434955,23.7980814 C140.434955,24.0364902 140.608474,24.2748989 140.687136,24.4949685 C140.765799,24.7150381 140.841376,24.9167686 140.906928,25.118499 C140.990217,25.3278708 141.061167,25.5425915 141.12749,25.7603687 C140.551149,25.9546743 139.937989,26.0176226 139.333686,25.9445241 C138.818694,25.8864693 138.324418,25.7104011 137.890005,25.4302643 C137.350167,25.0864055 136.946831,24.5133076 136.757117,23.8347597 C136.631412,23.5038912 136.395426,22.8253433 136.06304,21.8350301 C135.730654,20.8447169 135.339657,19.6702483 134.883109,18.3490666 L126.007403,18.3490666 C125.550855,19.6702483 125.159087,20.8439528 124.827472,21.8350301 C124.495858,22.8261074 124.260643,23.5038912 124.133395,23.8347597 C123.948584,24.4824841 123.5424,25.0464704 122.984312,25.4302643 C122.554104,25.7103066 122.063593,25.8864451 121.552199,25.9445241 C120.947896,26.0176226 120.334736,25.9546743 119.758395,25.7603687 C119.822404,25.5425915 119.895668,25.3278708 119.978957,25.118499 C119.978957,24.9167686 120.104662,24.7150381 120.183325,24.4949685 C120.261987,24.2575786 120.351188,24.0252829 120.45093,23.7980814 C120.59283,23.3571781 120.84424,22.6052737 121.222127,21.541604 L122.48072,17.8737774 C122.953464,16.4792392 123.456284,15.0304477 124.054733,13.5075355 C124.653182,11.9846233 125.093535,10.5174927 125.627975,9.12295448 C126.162414,7.72841625 126.525648,6.53637261 126.902763,5.4551279 C127.279878,4.37388319 127.532831,3.62121461 127.67396,3.21698956 C127.860163,2.65385513 128.108173,2.11266794 128.413538,1.60314587 C128.628581,1.25933307 128.887819,0.944676737 129.184735,0.667085959 C129.392945,0.476854077 129.639871,0.333026727 129.908889,0.245285902 C130.082496,0.180593049 130.26162,0.131491178 130.444099,0.0985728393 C130.672172,0.105493141 130.898873,0.136228364 131.120439,0.190268504 C131.389457,0.278009329 131.636382,0.421836679 131.844593,0.61206856 C132.141292,0.889858847 132.400506,1.20448583 132.61579,1.54812847 C132.920516,2.05798031 133.168494,2.59909674 133.355368,3.16197216 C133.496497,3.60287548 133.748678,4.35477993 134.110369,5.40011051 C134.472061,6.44544108 134.89699,7.67492711 135.385158,9.06793708 C135.873325,10.4609471 136.360722,11.9112668 136.958399,13.4525181 C137.556077,14.9937694 137.997202,16.4242218 138.532412,17.81876 L139.791006,21.4865866 C139.959558,22.26897 140.174582,23.0408111 140.434955,23.7980814 L140.434955,23.7980814 Z M133.686982,14.7721715 L132.475432,11.2327189 C132.082121,10.0773535 131.735854,9.03125882 131.452825,8.11430217 C131.169796,7.19734553 130.728671,6.02287689 130.445642,5.05013872 C130.114798,6.02287689 129.768531,7.04986833 129.422263,8.11430217 C129.075996,9.17873601 128.761348,10.0773535 128.383461,11.2327189 L127.20353,14.7736998 L133.686982,14.7721715 Z" id="Shape"></path>
            </g>
        </g>
    </g>
</svg>