<?xml version="1.0" encoding="UTF-8"?>
<svg width="254px" height="151px" viewBox="0 0 254 151" version="1.1" xmlns="http://www.w3.org/2000/svg" xmlns:xlink="http://www.w3.org/1999/xlink">
    <title>gaiax</title>
    <g id="gaiax" stroke="none" stroke-width="1" fill="none" fill-rule="evenodd">
        <g id="SVG-Layer" transform="translate(74.000000, 15.000000)" fill-rule="nonzero">
            <g id="Group">
                <g id="SvgjsG1232" fill="#8C98A4">
                    <path d="M49.3883075,119.030895 L3.61170826,92.6360939 C1.37813293,91.3434721 0.00225049776,88.9617731 0,86.3841322 L0,33.6158678 C-0.00537822163,31.0306067 1.3715232,28.6390091 3.61170826,27.3425683 L49.3883075,0.969105031 C51.6298428,-0.32303501 54.3915282,-0.32303501 56.6330634,0.969105031 L102.388292,27.3639061 C104.628477,28.6603469 106.005378,31.0519445 106,33.6372056 L106,86.3841322 C106.005378,88.9693933 104.628477,91.3609909 102.388292,92.6574317 L56.6330634,119.030895 C54.3915282,120.323035 51.6298428,120.323035 49.3883075,119.030895 Z" id="Shape"></path>
                </g>
                <g id="SvgjsG1233" transform="translate(41.777783, 38.384712)" fill="#FFFFFF">
                    <path d="M11.1111124,0 L0,6.40477445 L0,19.214608 L11.1111124,25.6202365 L22.2222248,19.2148927 L22.2222248,6.40505912 L11.1111124,0 Z M5.56282656,9.59819459 L0.299367941,6.56105789 L5.56168611,3.52762189 L10.8271405,6.5656126 L5.56282656,9.59819459 Z M11.1199509,6.73470616 L16.3734306,9.7658648 L11.1111124,12.7995855 L5.85136023,9.76472613 L11.1199509,6.73470616 Z M0.285112324,6.88757357 L5.55484342,9.92527961 L5.55512853,15.6827161 L0.285112324,12.642448 L0.285112324,6.88757357 Z M5.84024085,10.0895338 L10.9685562,13.0461091 L10.9685562,18.8055382 L5.84052597,15.8469703 L5.84024085,10.0895338 Z M10.9685562,19.1340466 L10.9685562,25.2094587 L5.84052597,22.2531681 L5.84052597,16.177756 L10.9685562,19.1340466 Z M11.2536686,19.1340466 L16.3825542,16.1774713 L16.382269,22.2528834 L11.2536686,25.2094587 L11.2536686,19.1340466 Z M11.2536686,18.8055382 L11.2536686,13.0461091 L16.3828393,10.0892491 L16.3825542,15.8438389 L11.2536686,18.8055382 Z M16.6679516,9.92499494 L21.9368274,6.88785824 L21.9368274,12.6370393 L16.6676665,15.6793001 L16.6679516,9.92499494 Z M21.9371125,6.71933402 L21.8675451,6.59891891 L16.6576876,9.60217996 L11.4022121,6.57244466 L16.6785008,3.53815466 L21.9368274,6.5693133 L21.9368274,6.71933402 L21.9371125,6.71933402 Z M16.3808435,3.36649907 L11.1091166,6.4033511 L5.84166641,3.3662144 L11.1111124,0.328793035 L16.3808435,3.36649907 Z M0.285112324,12.9757958 L5.55512853,16.0135018 L5.55512853,22.0889139 L0.285112324,19.0503538 L0.285112324,12.9757958 Z M16.6673814,22.0886292 L16.6676665,16.0132171 L21.9368274,12.9757958 L21.9368274,19.0506385 L16.6673814,22.0886292 Z" id="Shape"></path>
                </g>
                <g id="SvgjsG1234" transform="translate(17.555558, 69.447485)" fill="#FFFFFF">
                    <path d="M12.5347864,5.79859869 L12.5347864,11.5247149 C11.1554759,12.7085955 9.29219685,13.3126161 7.38052094,13.3126161 C3.58136754,13.3126161 0,10.8482117 0,6.62006683 C0,2.36776113 3.65396283,0 7.40471937,0 C9.2438,0 11.0586822,0.531538213 12.4379927,1.57045381 L10.768301,3.50332004 C9.8245623,2.85097769 8.5904424,2.5127261 7.40471937,2.5127261 C4.98487644,2.5127261 2.63762879,3.84157163 2.63762879,6.66838849 C2.63762879,9.49520535 5.0332733,10.7998901 7.4289178,10.7998901 C8.32425968,10.7998901 9.2438,10.5824426 10.0665466,10.1475477 L10.0665466,8.14219899 L8.78402984,8.14219899 L7.71929895,5.79859869 L12.5347864,5.79859869 Z M24.7065963,8.77038051 L25.0453743,8.77038051 L22.601333,4.13150156 L19.6249262,9.85761777 C20.4234743,9.44688369 22.1173644,8.77038051 24.7065963,8.77038051 Z M21.3188162,1.69125795 L20.4960696,0.120804139 L23.1820953,0.120804139 L29.9576555,12.9260429 L27.223233,12.9260429 L26.2310974,11.0414983 L24.7307948,11.0414983 C21.6333958,11.0414983 18.4150047,12.2495397 18.0036314,12.7810779 L17.9310361,12.9260429 L15.3176058,12.9260429 L21.3188162,1.69125795 Z M36.297644,12.9260429 L33.8294042,12.9260429 L33.8294042,0.410734074 L36.297644,0.410734074 L36.297644,12.9260429 Z M49.3163989,8.77038051 L49.6551769,8.77038051 L47.2111356,4.13150156 L44.2347288,9.85761777 C45.0332769,9.44688369 46.727167,8.77038051 49.3163989,8.77038051 Z M45.9286188,1.69125795 L45.1058722,0.120804139 L47.7918979,0.120804139 L54.5674581,12.9260429 L51.8330356,12.9260429 L50.8409,11.0414983 L49.3405974,11.0414983 C46.2431984,11.0414983 43.0248073,12.2495397 42.613434,12.7810779 L42.5408387,12.9260429 L39.9274084,12.9260429 L45.9286188,1.69125795 Z M63.7386628,8.43212892 L60.1572953,12.9260429 L56.7453167,12.9260429 L62.0689712,6.30597607 L57.4470712,0.410734074 L60.8590497,0.410734074 L63.8112581,4.17982322 L66.8360618,0.410734074 L70.1512466,0.410734074 L65.4567513,6.28181524 L70.683612,12.9260429 L67.2958319,12.9260429 L63.7386628,8.43212892 Z" id="Shape"></path>
                </g>
            </g>
        </g>
    </g>
</svg>