<?xml version="1.0" encoding="UTF-8"?>
<svg width="254px" height="151px" viewBox="0 0 254 151" version="1.1" xmlns="http://www.w3.org/2000/svg" xmlns:xlink="http://www.w3.org/1999/xlink">
    <title>nhadatzen</title>
    <g id="nhadatzen" stroke="none" stroke-width="1" fill="none" fill-rule="evenodd">
        <g id="nhadatzen-logo-wide" transform="translate(10.000000, 35.000000)">
            <g id="Group" transform="translate(11.000000, 16.000000)" fill="#8C98A4" fill-rule="nonzero">
                <g id="SvgjsG5688">
                    <path d="M25.1541708,0 L0.239656939,23.9226191 C-0.0712011806,24.2239501 -0.08139325,24.7193588 0.219272801,25.0360117 C0.514842813,25.3475574 1.01425422,25.3577719 1.32511234,25.0564409 L25.1541708,2.18081946 L48.9832292,25.0564409 C49.2940874,25.3577719 49.7934988,25.3475574 50.0890688,25.0360117 C50.3897349,24.7193588 50.3795429,24.2239501 50.0691944,23.9226191 L25.1541708,0 Z M43.1125972,45.8947582 C43.1125972,46.7369529 42.4246326,47.4269499 41.5837868,47.4269499 L31.2286442,47.4269499 L31.2286442,36.7215268 C31.2286442,34.7506176 29.6335853,33.1464129 27.6614199,33.1464129 L22.6163455,33.1464129 C20.64418,33.1464129 19.0491212,34.7506176 19.0491212,36.7215268 L19.0491212,47.4269499 L8.73984288,47.4269499 C7.89390113,47.4269499 7.21103245,46.7369529 7.21103245,45.8947582 L7.21103245,26.1340824 C7.21103245,25.6994507 6.85940608,25.3475574 6.42624313,25.3475574 C5.99308017,25.3475574 5.64145375,25.6994507 5.64145375,26.1340824 L5.64145375,45.4248861 C5.64145375,47.3957953 7.23651264,49 9.2086781,49 L20.6186999,49 L20.6186999,36.2516546 C20.6186999,35.4038419 21.3066646,34.719463 22.1475103,34.719463 L28.1302551,34.719463 C28.9761968,34.719463 29.6590655,35.4038419 29.6590655,36.2516546 L29.6590655,49 L41.1103652,49 C43.082021,49 44.6775895,47.3957953 44.6775895,45.4248861 L44.6775895,26.1340824 C44.6775895,25.6994507 44.3305495,25.3475574 43.8973866,25.3475574 C43.4642236,25.3475574 43.1131068,25.6994507 43.1131068,26.1340824 L43.1131068,45.8947582 L43.1125972,45.8947582 Z M40.7225569,11.5118666 C40.7225569,11.9459876 41.0741834,12.2983917 41.5073463,12.2983917 C41.9405093,12.2983917 42.2921356,11.9459876 42.2921356,11.5118666 L42.2921356,6.99700856 C42.2921356,5.02558864 40.6970768,3.42189471 38.7249113,3.42189471 L34.5308747,3.42189471 C34.0972022,3.42189471 33.7455758,3.77429879 33.7455758,4.20841976 C33.7455758,4.64254073 34.0972022,4.99494481 34.5308747,4.99494481 L39.1932369,4.99494481 C40.0391787,4.99494481 40.7220473,5.68443104 40.7220473,6.52713647 L40.7220473,11.5118666 L40.7225569,11.5118666 Z" id="Shape"></path>
                </g>
                <g id="SvgjsG5689" transform="translate(57.854657, 9.579735)">
                    <path d="M0,29.7268352 L0,11.8473719 L2.05007278,13.5085496 C3.41679305,12.0805196 5.10338402,11.3665046 7.10984572,11.3665046 C9.11630737,11.3665046 10.8028947,12.0513736 12.1696077,13.4211115 C13.5363207,14.7908494 14.2196805,16.4811669 14.2196805,18.4920641 L14.2196805,29.7268352 L11.8206394,29.7268352 L11.8206394,18.4920641 C11.8206394,17.1223211 11.3626427,15.9930117 10.4466493,15.1041359 C9.53065589,14.2152601 8.41839643,13.7708189 7.10987077,13.7708124 C5.80134517,13.7708058 4.68908566,14.2298169 3.77309229,15.1478456 C2.85709893,16.0658743 2.39910078,17.1805938 2.39909788,18.492004 L2.39909788,29.7268352 L0,29.7268352 L0,29.7268352 Z M28.6574176,18.4920827 C28.6574176,17.1223396 28.199421,15.9930303 27.2834275,15.1041545 C26.3674342,14.2152787 25.2551747,13.7708375 23.9466491,13.7708309 C22.6381235,13.7708244 21.5258639,14.2298355 20.6098706,15.1478642 C19.6938772,16.0658929 19.2358791,17.1806124 19.2358761,18.4920226 L19.2358761,29.726775 L16.836835,29.726775 L16.836835,0 L19.2358761,0 L19.2358761,13.1581886 C20.5735173,11.9633064 22.1437916,11.3658653 23.9466992,11.3658653 C25.9531609,11.3658653 27.6397519,12.0507368 29.0064722,13.4204798 C30.3731924,14.7902229 31.0565449,16.4805404 31.0565449,18.4914324 L31.0565449,29.7261849 L28.6575038,29.7261849 L28.6575038,18.4914324 L28.6574176,18.4920827 Z M49.2456118,27.322488 C47.3554668,29.2751005 45.0872928,30.2514067 42.4410896,30.2514067 C39.882124,30.2514067 37.6721083,29.3188157 35.8110424,27.4536337 C33.9499764,25.5884517 33.0193781,23.3735481 33.0193781,20.8089228 C33.0193781,18.1860107 33.949911,15.9565354 35.810977,14.1204968 C37.6720429,12.2844583 39.8820586,11.3664718 42.4410242,11.3664718 C45.0872273,11.3664718 47.3554014,12.342778 49.2455464,14.2953904 L51.8627577,11.8474374 L51.8627577,29.7269007 L49.2456118,27.322488 Z M42.4411115,13.7707118 C40.4637289,13.7707118 38.7989473,14.4483936 37.4467666,15.8035649 C36.094586,17.1587362 35.4184901,18.8271815 35.4184901,20.808901 C35.4184901,22.7906204 36.0945787,24.4590658 37.4467666,25.8142371 C38.7989546,27.1694084 40.463718,27.8469995 42.4410569,27.8469995 C44.3893603,27.8469995 46.0468722,27.162128 47.4135924,25.7923849 C48.7803127,24.4226419 49.4636649,22.7614642 49.4636649,20.8088518 C49.4636649,18.8562394 48.7803025,17.1950617 47.4135924,15.8253187 C46.0468823,14.4555757 44.3893705,13.7707118 42.4410569,13.7707118 L42.4411115,13.7707118 Z M63.2472468,11.3664609 C66.0388457,11.3664609 68.3797176,12.4156258 70.2698624,14.5139555 L70.2698624,0.000453545043 L72.6689039,0.000453545043 L72.6689039,29.7272286 L70.0516925,27.3228815 C68.1615477,29.2754939 65.8933734,30.2518001 63.2471703,30.2518001 C60.688205,30.2518001 58.4781888,29.3192091 56.6171232,27.4540271 C54.7560571,25.5888451 53.8254589,23.3739415 53.8254589,20.8093163 C53.8254589,18.1864041 54.7559917,15.9569288 56.6170578,14.1208903 C58.4781234,12.2848517 60.6881391,11.3668434 63.2471049,11.3668653 L63.2472468,11.3664609 Z M63.2472468,13.7707118 C61.2698642,13.7707118 59.6050828,14.4483936 58.2529017,15.8035649 C56.9007212,17.1587362 56.2246256,18.8271815 56.2246256,20.808901 C56.2246256,22.7906204 56.9007141,24.4590658 58.2529017,25.8142371 C59.6050898,27.1694084 61.2698531,27.8469995 63.247192,27.8469995 C65.1954953,27.8469995 66.8530076,27.162128 68.2197278,25.7923849 C69.586448,24.4226419 70.2698006,22.7614642 70.2698006,20.8088518 C70.2698006,18.8562394 69.586438,17.1950617 68.2197278,15.8253187 C66.8530177,14.4555757 65.1955059,13.7707118 63.247192,13.7707118 L63.2472468,13.7707118 Z M90.8578825,27.322488 C88.9677371,29.2751005 86.6995634,30.2514067 84.0533603,30.2514067 C81.4943944,30.2514067 79.2843787,29.3188157 77.4233131,27.4536337 C75.562247,25.5884517 74.6316488,23.3735481 74.6316488,20.8089228 C74.6316488,18.1860107 75.5621816,15.9565354 77.4232472,14.1204968 C79.2843133,12.2844583 81.494329,11.3664718 84.0532949,11.3664718 C86.699498,11.3664718 88.9676717,12.342778 90.8578171,14.2953904 L93.475028,11.8474374 L93.475028,29.7269007 L90.8578825,27.322488 Z M84.0533819,13.7707118 C82.0759993,13.7707118 80.4112179,14.4483936 79.0590374,15.8035649 C77.7068563,17.1587362 77.0307607,18.8271815 77.0307607,20.808901 C77.0307607,22.7906204 77.7068492,24.4590658 79.0590374,25.8142371 C80.411225,27.1694084 82.0759887,27.8469995 84.0533276,27.8469995 C86.001631,27.8469995 87.6591427,27.162128 89.0258629,25.7923849 C90.3925831,24.4226419 91.0759357,22.7614642 91.0759357,20.8088518 C91.0759357,18.8562394 90.3925731,17.1950617 89.0258629,15.8253187 C87.6591528,14.4555757 86.001641,13.7707118 84.0533276,13.7707118 L84.0533819,13.7707118 Z M98.6656029,14.2517189 L95.4378056,14.2517189 L95.4378056,11.8473719 L98.6656029,11.8473719 L98.6656029,6.82002516 L101.064644,5.63971687 L101.064644,11.8473303 L104.248724,11.8473303 L104.248724,14.2516774 L101.064644,14.2516774 L101.064644,29.7267936 L98.6656029,29.7267936 L98.6656029,14.2516774 L98.6656029,14.2517189 Z M109.395735,27.322488 L117.247161,27.322488 L117.247161,29.7268352 L105.557351,29.7268352 L113.190608,14.2517189 L105.688088,14.2517189 L105.688088,11.8473719 L117.028991,11.8473719 L109.395735,27.322488 Z M134.825433,24.0875521 L136.919078,25.2678604 C136.133941,26.7541773 134.999854,27.9563454 133.516817,28.8743647 C132.03378,29.7923839 130.405344,30.2513979 128.631508,30.2513979 C126.072542,30.2513979 123.862527,29.3188069 122.001461,27.453625 C120.140395,25.588443 119.209797,23.3735394 119.209797,20.8089141 C119.209797,18.1860019 120.14033,15.9565266 122.001396,14.1204881 C123.862461,12.2844496 126.072477,11.3664631 128.631443,11.3664631 C130.259875,11.3664631 131.793801,11.7744717 133.233219,12.5904888 C134.672637,13.4065059 135.784897,14.4410735 136.569997,15.6941917 L124.400339,26.4480332 C125.621663,27.3806242 127.032002,27.8469197 128.631355,27.8469197 C129.968997,27.8469197 131.183052,27.5117698 132.27352,26.84147 C133.363988,26.1711703 134.214568,25.2531619 134.825259,24.087445 L134.825433,24.0875521 Z M122.786718,24.743302 L133.211639,15.4755916 C131.903076,14.3389963 130.376421,13.7706987 128.631672,13.7706987 C126.654289,13.7706987 124.989508,14.4482844 123.637327,15.8034556 C122.285146,17.1586269 121.609051,18.8270723 121.609051,20.8087917 C121.609051,22.2368217 122.001619,23.5482777 122.786756,24.74316 L122.786718,24.743302 Z M138.925662,29.7268352 L138.925662,11.8473719 L140.975735,13.5085496 C142.342455,12.0805196 144.029046,11.3665046 146.035508,11.3665046 C148.041969,11.3665046 149.728557,12.0513736 151.09527,13.4211115 C152.461983,14.7908494 153.145343,16.4811669 153.145343,18.4920641 L153.145343,29.7268352 L150.746301,29.7268352 L150.746301,18.4920641 C150.746301,17.1223211 150.288305,15.9930117 149.372311,15.1041359 C148.456318,14.2152601 147.344058,13.7708189 146.035533,13.7708124 C144.727007,13.7708058 143.614748,14.2298169 142.698755,15.1478456 C141.782761,16.0658743 141.324763,17.1805938 141.32476,18.492004 L141.32476,29.7268352 L138.925662,29.7268352 L138.925662,29.7268352 Z" id="Shape"></path>
                </g>
            </g>
            <rect id="Rectangle" x="0" y="0" width="234" height="81"></rect>
        </g>
    </g>
</svg>