<?xml version="1.0" encoding="UTF-8"?>
<svg width="254px" height="151px" viewBox="0 0 254 151" version="1.1" xmlns="http://www.w3.org/2000/svg" xmlns:xlink="http://www.w3.org/1999/xlink">
    <title>reales.vn</title>
    <g id="reales.vn" stroke="none" stroke-width="1" fill="none" fill-rule="evenodd">
        <g id="reales-logo" transform="translate(50.000000, 5.000000)" fill-rule="nonzero">
            <g id="Group" fill="#8C98A4">
                <path d="M70,0 C31.4021828,0 0,31.4014704 0,70 C0,108.598533 31.4021828,140 70,140 C108.59782,140 140,108.598533 140,70 C140,31.4014704 108.59782,0 70,0 Z M70.0000016,139.287564 C31.7947369,139.287564 0.712439205,108.205266 0.712439205,70.0000016 C0.712439205,31.7947369 31.7947369,0.712439205 70.0000016,0.712439205 C108.205266,0.712439205 139.287564,31.7947369 139.287564,70.0000016 C139.287564,108.205266 108.205266,139.287564 70.0000016,139.287564 Z" id="Shape"></path>
                <path d="M70.0000016,3.88493098 C33.5437752,3.88493098 3.88493098,33.5437752 3.88493098,70.0000016 C3.88493098,106.456228 33.5437752,136.115072 70.0000016,136.115072 C106.456228,136.115072 136.115785,106.456228 136.115785,70.0000016 C136.115785,33.5437752 106.456228,3.88493098 70.0000016,3.88493098 Z" id="Shape"></path>
            </g>
            <g id="SvgjsG2913" transform="translate(54.000000, 41.000000)" fill="#FFFFFF">
                <path d="M27.5946463,0 L4.40535373,0 C1.98240918,0 0,1.98240918 0,4.40535373 L0,27.5946463 C0,30.0175908 1.98240918,32 4.40535373,32 L27.5946463,32 C30.0171013,32 32,30.0175908 32,27.5946463 L32,4.40535373 C32,1.98191969 30.0171013,0 27.5946463,0 Z M26.7914034,14.8514264 C26.697912,15.1128107 26.4614914,15.2792352 26.1844436,15.2792352 L24.2974837,15.2792352 L24.2974837,24.5030669 C24.2974837,25.3063098 23.6396176,25.9631969 22.8368643,25.9631969 L9.16362525,25.9631969 C8.3603824,25.9631969 7.70349523,25.3058203 7.70349523,24.5030669 L7.70349523,15.2792352 L5.81604589,15.2792352 C5.53850861,15.2792352 5.30257744,15.1128107 5.20908605,14.8514264 C5.11559466,14.5900421 5.19342256,14.3115258 5.40830592,14.1362906 L10.0050478,10.3780344 L14.7775143,6.47684896 C15.496566,5.88848947 16.505392,5.88848947 17.2244436,6.47684896 L19.8363289,8.61197706 L19.8363289,7.1141568 C19.8363289,6.91689485 19.9978585,6.75536519 20.19561,6.75536519 L23.0380421,6.75536519 C23.2348145,6.75536519 23.3963442,6.91689485 23.3963442,7.1141568 L23.3963442,11.5224474 L26.5931625,14.1358012 C26.8065774,14.3120153 26.8839159,14.5900421 26.7914034,14.8514264 Z" id="Shape"></path>
            </g>
            <g id="SvgjsG2914" transform="translate(23.000000, 81.000000)" fill="#FFFFFF">
                <path d="M2.05709876,7.29657796 C2.3122428,7.07182086 2.59529322,6.89923953 2.90625001,6.77883395 C3.21720679,6.65842838 3.53215021,6.59822559 3.85108024,6.59822559 C4.63245884,6.59822559 5.27430556,6.79087451 5.77662037,7.17617238 C6.27893517,7.56147022 6.66563785,8.11533587 6.93672841,8.83776932 C7.00051439,8.99831009 7.02443415,9.1668779 7.00848766,9.34347276 C6.99254115,9.5200676 6.94071501,9.68060837 6.85300924,9.82509506 C6.7653035,9.96958175 6.64570474,10.0859738 6.49421295,10.1742712 C6.34272119,10.2625687 6.16332305,10.3067174 5.95601851,10.3067174 C5.780607,10.3067174 5.62512861,10.2665822 5.48958333,10.1863118 C5.35403806,10.1060414 5.23842593,10.0097169 5.14274692,9.89733841 C5.06301439,9.80101395 4.99524177,9.70067596 4.93942902,9.59632447 C4.88361624,9.49197295 4.82381686,9.38360793 4.76003088,9.27122939 C4.64840535,9.09463455 4.52481995,8.95014786 4.38927468,8.83776932 C4.25372943,8.7253908 4.02649178,8.6852556 3.70756172,8.71736374 C3.50025719,8.73341783 3.30092593,8.79763415 3.10956791,8.91001266 C2.91820988,9.02239121 2.75077161,9.15885087 2.6072531,9.31939162 C2.46373455,9.47993239 2.34812243,9.66054076 2.26041666,9.86121674 C2.1727109,10.0618927 2.12885802,10.2665822 2.12885802,10.4752852 L2.12885802,17.9404309 C2.12885802,18.2294043 2.02520576,18.4782425 1.81790123,18.6869455 C1.61059671,18.8956485 1.36342592,19 1.07638889,19 C0.773405347,19 0.518261317,18.8956485 0.310956789,18.6869455 C0.103652261,18.4782425 0,18.2294043 0,17.9404309 L0,7.65779468 C0,7.3688213 0.103652261,7.11998309 0.310956789,6.91128009 C0.518261317,6.70257711 0.773405347,6.59822559 1.07638889,6.59822559 C1.29963992,6.59822559 1.49897119,6.66244191 1.67438271,6.79087451 C1.84979424,6.91930715 1.97736625,7.08787495 2.05709876,7.29657796 Z M19.5424383,13.365019 L10.4768518,13.365019 C10.5406379,13.8626954 10.688143,14.3242501 10.9193673,14.7496831 C11.1505916,15.1751162 11.4456019,15.5443599 11.8043982,15.8574144 C12.1631944,16.170469 12.5698302,16.4152936 13.0243055,16.5918885 C13.4787808,16.7684833 13.9611625,16.8567807 14.4714506,16.8567807 C14.7744342,16.8567807 15.0495113,16.8326996 15.2966821,16.7845374 C15.5438529,16.7363752 15.7750772,16.6601183 15.9903549,16.5557668 C16.2056327,16.4514153 16.4209105,16.3229827 16.6361883,16.170469 C16.851466,16.0179552 17.0866769,15.8453739 17.341821,15.652725 C17.4375,15.5724546 17.5371656,15.5042248 17.6408179,15.4480355 C17.7444702,15.3918462 17.884002,15.3637516 18.0594136,15.3637516 C18.3623971,15.3637516 18.6175411,15.4681031 18.8248457,15.6768061 C19.0321502,15.8855091 19.1358025,16.1343473 19.1358025,16.4233207 C19.1358025,16.5999155 19.1039095,16.7444022 19.0401234,16.8567807 C18.9763374,16.9691593 18.9045782,17.0735108 18.8248457,17.1698352 C18.5697016,17.4588086 18.2707047,17.7196874 17.9278549,17.9524715 C17.5850051,18.1852556 17.2182356,18.3779045 16.8275463,18.5304183 C16.436857,18.682932 16.0381944,18.799324 15.6315586,18.8795944 C15.2249228,18.9598648 14.8382201,19 14.4714506,19 C13.626286,19 12.8289609,18.8354457 12.0794753,18.5063371 C11.3299897,18.1772286 10.6761831,17.7317279 10.1180556,17.1698352 C9.55992797,16.6079425 9.11741254,15.9537389 8.79050924,15.2072243 C8.46360598,14.4607098 8.30015431,13.6620194 8.30015431,12.8111534 C8.30015431,11.9602873 8.46360598,11.1575834 8.79050924,10.4030418 C9.11741254,9.6485002 9.55992797,8.99028307 10.1180556,8.42839036 C10.6761831,7.86649769 11.3299897,7.42099703 12.0794753,7.09188845 C12.8289609,6.7627799 13.626286,6.59822559 14.4714506,6.59822559 C15.2847222,6.59822559 16.0501543,6.73468525 16.7677469,7.00760455 C17.4853395,7.28052387 18.1231996,7.66983524 18.6813272,8.17553866 C19.2394547,8.68124207 19.6859568,9.28326994 20.0208333,9.98162231 C20.3557099,10.6799746 20.5470679,11.4465568 20.5949074,12.2813688 C20.6108539,12.6024503 20.5111883,12.8633291 20.2959105,13.0640051 C20.0806327,13.264681 19.8294753,13.365019 19.5424383,13.365019 Z M14.4714506,8.74144486 C13.6422325,8.74144486 12.8927469,8.97021545 12.2229938,9.42775667 C11.5532407,9.88529785 11.0588992,10.4833122 10.7399691,11.2217997 L18.1790123,11.2217997 C17.8760288,10.4672581 17.3856739,9.86523023 16.7079475,9.41571611 C16.0302212,8.96620195 15.2847222,8.74144486 14.4714506,8.74144486 Z M33.7268517,19 C33.4238683,19 33.1687243,18.8956485 32.9614197,18.6869455 C32.7541151,18.4782425 32.6504628,18.2294043 32.6504628,17.9404309 L32.6504628,17.4828897 C32.0923354,17.964512 31.4704217,18.3377693 30.7847221,18.6026616 C30.0990226,18.8675539 29.38143,19 28.6319444,19 C27.7867798,19 26.9894547,18.8354457 26.2399691,18.5063371 C25.4904835,18.1772286 24.8366769,17.7317279 24.2785494,17.1698352 C23.7204218,16.6079425 23.2779064,15.9537389 22.9510031,15.2072243 C22.6240998,14.4607098 22.4606482,13.6620194 22.4606482,12.8111534 C22.4606482,11.9602873 22.6240998,11.1575834 22.9510031,10.4030418 C23.2779064,9.6485002 23.7204218,8.99028307 24.2785494,8.42839036 C24.8366769,7.86649769 25.4904835,7.42099703 26.2399691,7.09188845 C26.9894547,6.7627799 27.7867798,6.59822559 28.6319444,6.59822559 C29.38143,6.59822559 30.0990226,6.73067172 30.7847221,6.99556399 C31.4704217,7.26045629 32.0923354,7.63371357 32.6504628,8.11533587 L32.6504628,7.65779468 C32.6504628,7.3688213 32.7541151,7.11998309 32.9614197,6.91128009 C33.1687243,6.70257711 33.4238683,6.59822559 33.7268517,6.59822559 C34.013889,6.59822559 34.2610596,6.70257711 34.4683642,6.91128009 C34.6756687,7.11998309 34.779321,7.3688213 34.779321,7.65779468 L34.779321,17.9404309 C34.779321,18.2294043 34.6756687,18.4782425 34.4683642,18.6869455 C34.2610596,18.8956485 34.013889,19 33.7268517,19 Z M28.6319444,8.74144486 C28.0738169,8.74144486 27.5515689,8.84980987 27.0652006,9.06653991 C26.5788323,9.28326994 26.1522634,9.57625685 25.7854938,9.94550064 C25.4187243,10.3147444 25.1277006,10.744191 24.9124228,11.2338403 C24.6971451,11.7234896 24.5895062,12.2492606 24.5895062,12.8111534 C24.5895062,13.3730461 24.6971451,13.8988171 24.9124228,14.3884664 C25.1277006,14.8781157 25.4187243,15.3075623 25.7854938,15.6768061 C26.1522634,16.0460499 26.5788323,16.3350232 27.0652006,16.5437262 C27.5515689,16.7524292 28.0738169,16.8567807 28.6319444,16.8567807 C29.190072,16.8567807 29.71232,16.7524292 30.1986883,16.5437262 C30.6850566,16.3350232 31.1116254,16.0460499 31.4783951,15.6768061 C31.8451645,15.3075623 32.1322017,14.8781157 32.3395063,14.3884664 C32.5468106,13.8988171 32.6504628,13.3730461 32.6504628,12.8111534 C32.6504628,12.2492606 32.5468106,11.7234896 32.3395063,11.2338403 C32.1322017,10.744191 31.8451645,10.3147444 31.4783951,9.94550064 C31.1116254,9.57625685 30.6850566,9.28326994 30.1986883,9.06653991 C29.71232,8.84980987 29.190072,8.74144486 28.6319444,8.74144486 Z M39.8024691,19 C39.5154321,19 39.2682612,18.8956485 39.0609566,18.6869455 C38.8536524,18.4782425 38.7500001,18.2294043 38.7500001,17.9404309 L38.7500001,1.05956908 C38.7500001,0.770595689 38.8536524,0.521757499 39.0609566,0.313054498 C39.2682612,0.1043515 39.5154321,0 39.8024691,0 C40.0895061,0 40.336677,0.1043515 40.5439816,0.313054498 C40.7512861,0.521757499 40.8549381,0.770595689 40.8549381,1.05956908 L40.8549381,17.9404309 C40.8549381,18.2294043 40.7512861,18.4782425 40.5439816,18.6869455 C40.336677,18.8956485 40.0895061,19 39.8024691,19 Z M55.0393518,13.365019 L45.9737654,13.365019 C46.0375513,13.8626954 46.1850565,14.3242501 46.4162809,14.7496831 C46.6475051,15.1751162 46.9425154,15.5443599 47.3013117,15.8574144 C47.660108,16.170469 48.0667437,16.4152936 48.5212192,16.5918885 C48.9756944,16.7684833 49.458076,16.8567807 49.9683643,16.8567807 C50.2713478,16.8567807 50.5464248,16.8326996 50.7935957,16.7845374 C51.0407663,16.7363752 51.2719908,16.6601183 51.4872684,16.5557668 C51.7025464,16.4514153 51.9178241,16.3229827 52.1331017,16.170469 C52.3483797,16.0179552 52.5835906,15.8453739 52.8387347,15.652725 C52.9344135,15.5724546 53.0340793,15.5042248 53.1377316,15.4480355 C53.2413838,15.3918462 53.3809156,15.3637516 53.5563272,15.3637516 C53.8593107,15.3637516 54.1144547,15.4681031 54.3217593,15.6768061 C54.5290638,15.8855091 54.6327161,16.1343473 54.6327161,16.4233207 C54.6327161,16.5999155 54.6008232,16.7444022 54.5370369,16.8567807 C54.473251,16.9691593 54.4014917,17.0735108 54.3217593,17.1698352 C54.0666153,17.4588086 53.7676183,17.7196874 53.4247685,17.9524715 C53.0819187,18.1852556 52.715149,18.3779045 52.3244598,18.5304183 C51.9337705,18.682932 51.5351079,18.799324 51.1284721,18.8795944 C50.7218364,18.9598648 50.3351337,19 49.9683643,19 C49.1231996,19 48.3258746,18.8354457 47.5763887,18.5063371 C46.8269032,18.1772286 46.1730965,17.7317279 45.6149691,17.1698352 C45.0568416,16.6079425 44.6143261,15.9537389 44.2874227,15.2072243 C43.9605194,14.4607098 43.7970677,13.6620194 43.7970677,12.8111534 C43.7970677,11.9602873 43.9605194,11.1575834 44.2874227,10.4030418 C44.6143261,9.6485002 45.0568416,8.99028307 45.6149691,8.42839036 C46.1730965,7.86649769 46.8269032,7.42099703 47.5763887,7.09188845 C48.3258746,6.7627799 49.1231996,6.59822559 49.9683643,6.59822559 C50.7816358,6.59822559 51.5470678,6.73468525 52.2646604,7.00760455 C52.982253,7.28052387 53.6201132,7.66983524 54.1782406,8.17553866 C54.7363684,8.68124207 55.1828705,9.28326994 55.5177469,9.98162231 C55.8526233,10.6799746 56.0439814,11.4465568 56.0918208,12.2813688 C56.1077673,12.6024503 56.0081019,12.8633291 55.7928239,13.0640051 C55.5775463,13.264681 55.3263888,13.365019 55.0393518,13.365019 Z M49.9683643,8.74144486 C49.1391461,8.74144486 48.3896605,8.97021545 47.7199074,9.42775667 C47.0501542,9.88529785 46.5558127,10.4833122 46.2368828,11.2217997 L53.675926,11.2217997 C53.3729422,10.4672581 52.8825876,9.86523023 52.204861,9.41571611 C51.5271348,8.96620195 50.7816358,8.74144486 49.9683643,8.74144486 Z M62.0717593,19 C61.5933643,19 61.1109824,18.9197296 60.6246142,18.7591889 C60.1382458,18.5986481 59.6997171,18.365864 59.3090278,18.0608365 C58.9183386,17.755809 58.5994083,17.3785382 58.3522377,16.9290241 C58.1050668,16.4795099 57.9814815,15.9738065 57.9814815,15.4119138 C57.9814815,15.1229404 58.0851338,14.8741022 58.2924383,14.6653992 C58.4997429,14.4566962 58.7469135,14.3523447 59.0339505,14.3523447 C59.3369343,14.3523447 59.5920783,14.4566962 59.7993828,14.6653992 C60.0066871,14.8741022 60.1103394,15.1229404 60.1103394,15.4119138 C60.1103394,15.877482 60.3096708,16.2346852 60.7083332,16.4835235 C61.1069958,16.7323616 61.5614713,16.8567807 62.0717593,16.8567807 C62.6298868,16.8567807 63.0564559,16.7403887 63.3514659,16.5076046 C63.6464763,16.2748204 63.7939815,15.8935361 63.7939815,15.3637516 C63.7939815,15.0426701 63.7341821,14.7858048 63.6145833,14.5931559 C63.4949846,14.400507 63.3235595,14.2319392 63.1003088,14.0874525 C62.9727366,14.0071821 62.8411779,13.9389523 62.7056327,13.882763 C62.5700874,13.8265737 62.4225822,13.7663709 62.2631171,13.7021546 C62.1036523,13.6379383 61.9402006,13.581749 61.7727624,13.5335868 C61.6053239,13.4854246 61.4338992,13.4292353 61.2584876,13.365019 C60.9076647,13.2526405 60.5528549,13.1201944 60.1940586,12.9676806 C59.8352623,12.8151669 59.508359,12.6185044 59.2133486,12.3776933 C58.9183386,12.1368821 58.6791411,11.8318547 58.4957561,11.4626109 C58.3123714,11.0933671 58.220679,10.6277989 58.220679,10.0659062 C58.220679,9.55217574 58.3163579,9.082594 58.507716,8.65716095 C58.6990741,8.23172791 58.9621915,7.86649769 59.2970679,7.56147022 C59.6319443,7.25644276 60.018647,7.0196451 60.457176,6.8510773 C60.8957047,6.68250949 61.3541668,6.59822559 61.8325618,6.59822559 C62.3109569,6.59822559 62.7694186,6.68250949 63.2079476,6.8510773 C63.6464763,7.0196451 64.0291925,7.25644276 64.3560958,7.56147022 C64.6829988,7.86649769 64.9461162,8.23172791 65.1454474,8.65716095 C65.3447789,9.082594 65.4444443,9.55217574 65.4444443,10.0659062 C65.4444443,10.3548796 65.340792,10.6037178 65.1334878,10.8124208 C64.9261832,11.0211238 64.6710392,11.1254753 64.3680554,11.1254753 C64.0810184,11.1254753 63.8338478,11.0211238 63.6265433,10.8124208 C63.4192387,10.6037178 63.3155864,10.3548796 63.3155864,10.0659062 C63.3155864,9.66455429 63.1720678,9.34347276 62.8850308,9.10266158 C62.5979938,8.86185043 62.2471706,8.74144486 61.8325618,8.74144486 C61.4179527,8.74144486 61.0671295,8.86185043 60.7800925,9.10266158 C60.4930555,9.34347276 60.3495369,9.66455429 60.3495369,10.0659062 C60.3495369,10.43515 60.5727879,10.7321504 61.01929,10.9569075 C61.274434,11.1013942 61.5614713,11.2217997 61.8804013,11.3181242 C62.0398664,11.3983946 62.2073046,11.4626109 62.3827159,11.5107731 C62.5581275,11.5589354 62.7335391,11.6231517 62.9089507,11.7034221 C63.2597736,11.8318547 63.6145833,11.9883819 63.9733796,12.1730038 C64.3321759,12.3576257 64.6550927,12.5904098 64.9421297,12.8713561 C65.2291666,13.1523025 65.4643776,13.4934516 65.6477623,13.8948036 C65.831147,14.2961555 65.9228393,14.7858048 65.9228393,15.3637516 C65.9228393,15.9416983 65.8231739,16.4554288 65.6238424,16.904943 C65.4245113,17.3544571 65.1494342,17.7357414 64.798611,18.0487959 C64.4477881,18.3618505 64.0371655,18.5986481 63.5667439,18.7591889 C63.0963219,18.9197296 62.5979938,19 62.0717593,19 Z M69.0084876,19 C68.6257715,19 68.2948816,18.8595268 68.015818,18.5785805 C67.7367541,18.2976341 67.5972223,17.964512 67.5972223,17.5792142 C67.5972223,17.1778623 67.7327676,16.8447402 68.0038581,16.5798479 C68.2749486,16.3149556 68.609825,16.1825095 69.0084876,16.1825095 C69.4071503,16.1825095 69.7420267,16.3149556 70.0131172,16.5798479 C70.2842077,16.8447402 70.4197529,17.1778623 70.4197529,17.5792142 C70.4197529,17.964512 70.2802211,18.2976341 70.0011572,18.5785805 C69.7220937,18.8595268 69.3912038,19 69.0084876,19 Z M81.5663581,8.06717364 L77.5956791,18.3257288 C77.5159463,18.5344318 77.3843879,18.6989861 77.2010029,18.8193916 C77.0176183,18.9397972 76.8143002,19 76.5910495,19 C76.3837449,19 76.1884003,18.9397972 76.0050153,18.8193916 C75.8216306,18.6989861 75.6900719,18.5344318 75.6103395,18.3257288 L71.6157406,8.06717364 C71.5679011,7.95479509 71.5439815,7.81833543 71.5439815,7.65779468 C71.5439815,7.3688213 71.6476338,7.11998309 71.8549384,6.91128009 C72.0622426,6.70257711 72.3094136,6.59822559 72.5964505,6.59822559 C72.8197016,6.59822559 73.0230196,6.65842838 73.2064043,6.77883395 C73.389789,6.89923953 73.5213477,7.06379384 73.6010801,7.27249684 L76.5910495,15.4359949 L79.6049382,7.27249684 C79.6846709,7.06379384 79.8162293,6.89923953 79.9996143,6.77883395 C80.182999,6.65842838 80.3783436,6.59822559 80.5856481,6.59822559 C80.8886316,6.59822559 81.1437756,6.70257711 81.3510802,6.91128009 C81.5583847,7.11998309 81.662037,7.3688213 81.662037,7.65779468 C81.662037,7.7701732 81.6301441,7.90663286 81.5663581,8.06717364 Z M86.1350307,7.32065907 C86.8845166,6.83903674 87.6898146,6.59822559 88.5509259,6.59822559 C89.1568931,6.59822559 89.730967,6.71461767 90.273148,6.94740176 C90.8153293,7.18018588 91.2897375,7.50126744 91.6963735,7.91064639 C92.1030093,8.32002535 92.4219392,8.79763415 92.6531636,9.34347276 C92.8843878,9.88931135 93,10.4672581 93,11.077313 L93,17.9404309 C93,18.2294043 92.8963477,18.4782425 92.6890432,18.6869455 C92.4817386,18.8956485 92.234568,19 91.9475307,19 C91.6445472,19 91.3894032,18.8956485 91.1820987,18.6869455 C90.9747941,18.4782425 90.8711418,18.2294043 90.8711418,17.9404309 L90.8711418,11.077313 C90.8711418,10.7562315 90.8113424,10.4552176 90.6917437,10.1742712 C90.5721449,9.89332488 90.4047067,9.6444867 90.1894291,9.42775667 C89.9741511,9.2110266 89.7269805,9.04245879 89.4479166,8.92205322 C89.1688527,8.80164764 88.8698558,8.74144486 88.5509259,8.74144486 C88.2319959,8.74144486 87.9290122,8.80164764 87.6419752,8.92205322 C87.3549382,9.04245879 87.1077673,9.2110266 86.9004631,9.42775667 C86.6931585,9.6444867 86.5297068,9.89332488 86.4101081,10.1742712 C86.2905093,10.4552176 86.2307099,10.7562315 86.2307099,11.077313 C86.2307099,11.1254753 86.2147634,11.1977186 86.1828705,11.2940431 L86.1828705,17.9404309 C86.1828705,18.2294043 86.0792182,18.4782425 85.8719136,18.6869455 C85.6646091,18.8956485 85.4174381,19 85.1304012,19 C84.8274177,19 84.5722737,18.8956485 84.3649691,18.6869455 C84.1576646,18.4782425 84.0540123,18.2294043 84.0540123,17.9404309 L84.0540123,7.51330799 C84.0540123,7.20828053 84.1576646,6.95141529 84.3649691,6.74271228 C84.5722737,6.53400931 84.8274177,6.42965779 85.1304012,6.42965779 C85.7044754,6.42965779 86.0393518,6.72665823 86.1350307,7.32065907 Z" id="Shape"></path>
            </g>
        </g>
    </g>
</svg>