<?xml version="1.0" encoding="UTF-8"?>
<svg width="254px" height="151px" viewBox="0 0 254 151" version="1.1" xmlns="http://www.w3.org/2000/svg" xmlns:xlink="http://www.w3.org/1999/xlink">
    <title>relianvn</title>
    <g id="relianvn" stroke="none" stroke-width="1" fill="none" fill-rule="evenodd">
        <g id="relian-logo-new-color" transform="translate(10.000000, 49.000000)" fill="#8C98A4" fill-rule="nonzero">
            <path d="M0.0312300829,0 L0.0312300829,5.19685039 L43.722116,5.19685039 L43.722116,46.6141732 L6.40216698,46.6141732 L6.40216698,17.7322835 L20.7992352,17.7322835 C21.6736775,17.7322835 22.4544295,18.015748 23.1414914,18.5826772 C23.7973231,19.1496063 24.140854,19.8425197 24.140854,20.7244094 C24.140854,21.7322834 23.7973231,22.488189 23.1102613,22.992126 C22.4231995,23.527559 21.6112174,23.7795276 20.705545,23.7795276 L8.3384321,23.7795276 L28.6067559,42.3622047 L38.0070108,42.3622047 L23.3601019,29.3543307 L23.3601019,29.1968504 C25.0777565,29.1968504 26.5143403,29.007874 27.6698534,28.6614173 C28.8253665,28.3149606 29.7310389,27.7795276 30.4181007,27.023622 C31.1051626,26.2677165 31.6048439,25.2913386 31.9483747,24.0629921 C32.2606756,22.8346457 32.416826,21.3543307 32.416826,19.5590551 C32.416826,17.7637795 32.1982154,16.2834646 31.7922243,15.1181102 C31.3862333,13.9527559 30.7616316,13.007874 29.8871893,12.3464567 C29.012747,11.6535433 27.9196941,11.1811023 26.5455705,10.8661417 C25.2026769,10.5826772 23.4850223,10.4251969 21.4238368,10.4251969 L0,10.4251969 L0,52 L49,52 L49,0 L0.0312300829,0 Z" id="Shape"></path>
            <g id="SvgjsG1587" transform="translate(60.000000, 8.000000)">
                <path d="M15.2311042,15.3339856 C15.6502875,15.6094042 15.7439126,15.7926013 15.5110177,16.1139276 L14.1602825,18.0419395 C14.0205538,18.3173581 13.7876782,18.3632657 13.4616254,18.2255618 C12.1574691,17.5369745 11.1327867,17.0779254 9.40939214,17.0779254 C7.73263156,17.0779254 5.31099217,17.7665127 3.49372523,20.612677 L3.49372523,36.1286409 C3.49372523,36.4499671 3.30741758,36.7249524 2.98138401,36.7249524 L0.512808384,36.7249524 C0.18631589,36.7249524 0,36.4499671 0,36.1286409 L0,14.5531416 C0,14.2777229 0.186307646,14.0022772 0.512808384,14.0022772 L2.2827269,14.0022772 C3.02796298,14.0022772 3.49372523,14.7367721 3.49372523,15.3335441 L3.49372523,16.6189034 C5.44993216,14.7826797 7.63911641,13.8186738 10.0609482,13.8186738 C12.3897869,13.8186738 14.2527809,14.6913249 15.2310768,15.3340045 L15.2311042,15.3339856 Z M38.8453928,26.9021648 C40.1495491,26.9021648 41.0810735,26.3967476 41.0810735,24.7441544 C41.0810735,18.8682496 36.4698926,13.6810945 29.8095118,13.6810945 C23.3354468,13.6810945 18.3516341,18.7767051 18.3516341,25.341089 C18.3516341,32.1351463 23.6149206,37 30.1354272,37 C34.234102,37 37.4479137,35.072882 39.5438301,32.4103212 C39.7767139,32.0889949 39.7301377,31.8594567 39.4506776,31.5840381 L38.8451784,30.8036356 C38.5661717,30.4364017 38.2396793,30.4823093 37.913654,30.7581775 C36.1437355,32.5025859 33.5819469,33.8796251 30.4612931,33.8796251 C25.4774805,33.8796251 22.496701,30.4366888 22.0779025,26.9019372 L38.8449586,26.9019372 L38.8453928,26.9021648 Z M22.0313455,24.1013935 C22.1244979,21.0257182 24.5930515,16.894303 29.7631801,16.894303 C34.9333087,16.894303 37.3086989,21.1635765 37.4482984,24.1013935 L22.0313455,24.1013935 Z M49.2785936,0.00192297434 L46.9502221,0.00192297434 C46.5310388,0.00192297434 46.3447229,0.185545342 46.3447229,0.598694983 L46.3447229,35.4397367 C46.3447229,36.2196788 46.7639062,36.7246355 47.6023002,36.7246355 L49.2785936,36.7246355 C49.6511979,36.7246355 49.8840928,36.4955579 49.8840928,36.0824163 L49.8840928,0.596772007 C49.8840928,0.183630493 49.6512089,0 49.2785936,0 L49.2785936,0.00192297434 Z M58.5478394,4.08621176 C57.3834201,4.08621176 56.4984746,3.2140211 56.4984746,2.11229232 C56.4984746,1.01056355 57.3834201,0.138372886 58.5478394,0.138372886 C59.6191009,0.138372886 60.5506254,1.01056355 60.5506254,2.11229232 C60.5506254,3.2140211 59.6191009,4.08621176 58.5478394,4.08621176 Z M59.7121764,14.0022582 L57.3833376,14.0018099 C56.9641544,14.0018099 56.7778385,14.1854323 56.7778385,14.598582 L56.7778385,35.4856023 C56.7778385,36.2200972 57.1970217,36.7250539 57.9422578,36.7250539 L59.7587553,36.7250539 C60.0847807,36.7250539 60.3176756,36.4959762 60.3176756,36.1287424 L60.3176756,14.5990153 C60.3176756,14.1858738 60.0847916,14.0022433 59.7121764,14.0022433 L59.7121764,14.0022582 Z M85.701478,35.853122 C85.2357158,31.400218 85.1886693,26.9928154 85.3749851,22.5401823 C85.6078693,17.2151689 82.720121,13.7264604 77.0377613,13.7264604 C73.3581602,13.7264604 69.6326664,14.8281892 67.3501598,16.0676408 C66.9775551,16.2512632 66.7912394,16.6185052 66.9775551,16.9398315 L67.7693704,18.6842399 C67.9090989,19.0514738 68.1885535,19.143289 68.6543157,18.9137672 C71.8681277,17.3993573 74.3366754,16.8025853 76.8983819,16.8025853 C80.2053515,16.8025853 82.1149519,18.4551784 81.9753522,22.0357834 C72.1476017,23.6883766 65.906294,25.2950892 65.906294,30.8955484 C65.906294,34.6139304 68.7007571,36.9550837 73.4050959,36.9550837 C77.4106131,36.9550837 79.7860032,35.715632 82.3012677,34.1548541 C82.4409962,35.5320016 82.7204514,36.7255456 83.3259503,36.7255456 L85.2821573,36.7255456 C85.7013404,36.7255456 85.7944986,36.358745 85.7013404,35.8533549 L85.701478,35.853122 Z M74.0102932,34.1541607 C71.5882965,34.1541607 69.4922702,33.2360625 69.4922702,30.8490828 C69.4922702,27.222516 75.5937035,26.3043635 81.9281687,25.019221 C81.8350162,27.1308633 81.8350162,29.6557555 81.9281687,31.5378325 C80.2048291,32.6854689 77.1306724,34.1544316 74.0100186,34.1544316 L74.0102932,34.1541607 Z M112.902238,35.9912782 C112.948814,36.4039863 112.856115,36.7253126 112.483494,36.7253126 L110.480708,36.7253126 C109.642342,36.7253126 109.223131,36.1749087 109.223131,35.4404138 L109.223131,22.7704517 C109.223131,19.2817432 106.98745,16.8490454 102.888665,16.8490454 C99.4415469,16.8490454 96.7866828,18.5470858 94.5976085,20.704744 L94.5976085,36.1288927 C94.5976085,36.450219 94.3647249,36.7253126 94.0386881,36.7253126 L91.5701128,36.7253126 C91.2440873,36.7253126 91.0577715,36.450219 91.0577715,36.1288927 L91.0577715,14.5533935 C91.0577715,14.2779748 91.2906551,14.0025291 91.5701128,14.0025291 L93.340031,14.0025291 C94.0852672,14.0025291 94.5510294,14.737024 94.5976085,15.3337959 L94.5976085,17.2159272 C96.5538155,15.5174264 99.3951054,13.6811757 103.214306,13.6811757 C108.011803,13.6811757 112.715867,16.4814053 112.715867,22.3109963 L112.715867,32.6398051 C112.762443,33.8338095 112.809019,34.9350779 112.902175,35.9914678 L112.902238,35.9912782 Z M119.702381,36.908935 C118.444804,36.908935 117.326963,35.8990215 117.326963,34.6136622 C117.326963,33.3742105 118.444804,32.2724818 119.702381,32.2724818 C120.959959,32.2724818 122.03122,33.3742105 122.03122,34.6136622 C122.03122,35.8990215 120.959959,36.908935 119.702381,36.908935 Z M148.673645,14.0022582 L145.926091,14.0022582 C145.553486,14.0022582 145.460329,14.139973 145.320591,14.4613074 L137.262841,31.1708695 L129.158375,14.4613074 C129.018646,14.1399811 128.925491,14.0022582 128.599454,14.0022582 L125.711833,14.0022582 C125.385808,14.0022582 125.246071,14.139973 125.385808,14.4613074 L136.424062,36.5416551 C136.563791,36.7707327 136.796667,36.9998104 137.076141,36.9998104 L137.495324,36.9998104 C137.728208,36.9998104 138.007665,36.7707327 138.147402,36.5416551 L149.093048,14.4613074 C149.232777,14.1399811 148.95332,14.0022582 148.673865,14.0022582 L148.673645,14.0022582 Z M174.988904,35.9912782 C175.03548,36.4039863 174.942781,36.7253126 174.57016,36.7253126 L172.567375,36.7253126 C171.729008,36.7253126 171.309797,36.1749087 171.309797,35.4404138 L171.309797,22.7704517 C171.309797,19.2817432 169.074116,16.8490454 164.975332,16.8490454 C161.528213,16.8490454 158.873349,18.5470858 156.684274,20.704744 L156.684274,36.1288927 C156.684274,36.450219 156.451391,36.7253126 156.125355,36.7253126 L153.656779,36.7253126 C153.330753,36.7253126 153.144438,36.450219 153.144438,36.1288927 L153.144438,14.5533935 C153.144438,14.2779748 153.377322,14.0025291 153.656779,14.0025291 L155.426698,14.0025291 C156.171933,14.0025291 156.637696,14.737024 156.684274,15.3337959 L156.684274,17.2159272 C158.640481,15.5174264 161.481771,13.6811757 165.300972,13.6811757 C170.098469,13.6811757 174.802533,16.4814053 174.802533,22.3109963 L174.802533,32.6398051 C174.849109,33.8338095 174.895686,34.9350779 174.988841,35.9914678 L174.988904,35.9912782 Z" id="Shape"></path>
            </g>
        </g>
    </g>
</svg>