<?xml version="1.0" encoding="UTF-8"?>
<svg width="254px" height="151px" viewBox="0 0 254 151" version="1.1" xmlns="http://www.w3.org/2000/svg" xmlns:xlink="http://www.w3.org/1999/xlink">
    <title>zitavn</title>
    <g id="zitavn" stroke="none" stroke-width="1" fill="none" fill-rule="evenodd">
        <g id="zitavn-logo-blue-new" transform="translate(19.000000, 42.000000)" fill="#8C98A4" fill-rule="nonzero">
            <g id="Group" transform="translate(70.000000, 18.000000)">
                <path d="M56.4388405,29.6629147 C56.0622991,29.6629147 55.6457631,29.5496659 55.3071425,29.2867985 C54.5878329,28.7557413 54.3244613,27.7749414 54.739516,26.9476039 L67.3303971,1.05856611 C67.671684,0.415442843 68.3133746,0 69.0326842,0 C69.7484388,0 70.4295314,0.415442843 70.7349714,1.05856611 L83.3999165,26.9082773 C83.8543732,27.8139723 83.4763506,28.9452778 82.52922,29.3973861 C81.5856446,29.8891167 80.4500952,29.4736738 79.9971198,28.5688659 L77.0446322,22.4900944 C75.0813435,21.9282856 73.0034038,21.8496324 70.7705221,22.266258 C68.6902123,22.6420785 66.5361347,23.3984506 64.3068081,24.5684914 C60.4492584,26.6054919 57.76429,29.0948964 57.7248879,29.1365885 C57.3871561,29.4733781 56.8959636,29.6629147 56.4388405,29.6629147 Z M69.032388,6.1905419 L61.4319396,21.8496324 C61.7708565,21.6612786 62.1130322,21.4735161 62.4898699,21.2839796 C65.0219701,19.9267677 67.5949537,19.0207771 70.0521012,18.5695559 C71.7540921,18.2673619 73.3799452,18.154113 74.9690625,18.3028445 L69.032388,6.1905419 Z" id="Shape"></path>
                <path d="M22.5338195,29.8497901 L1.88507071,29.8497901 C1.16457606,29.8497901 0.520515455,29.4343472 0.18159856,28.7533758 C-0.120286331,28.111731 -0.0462223242,27.3175107 0.407049397,26.7497881 L18.5936144,3.94626348 L2.49328434,3.94626348 C1.46853474,3.94626348 0.599023302,3.1150821 0.599023302,2.05533324 C0.599023302,0.994401624 1.46853474,0.164698693 2.49328434,0.164698693 L22.5335233,0.164698693 C23.255203,0.164698693 23.8995598,0.580141536 24.2393655,1.22415187 C24.5448054,1.90423624 24.4671864,2.66001695 24.0139146,3.22566974 L5.82586838,26.0673382 L22.533227,26.0673382 C23.5579766,26.0673382 24.4301547,26.9005894 24.4301547,27.9591555 C24.4307469,28.9792821 23.5585691,29.8497901 22.5338195,29.8497901 Z" id="Path"></path>
                <path d="M29.5408671,29.8867512 C28.5173025,29.8867512 27.6463098,29.0567525 27.6463098,27.9958209 L27.6463098,2.05533324 C27.6463098,1.03520669 28.5170062,0.164698693 29.5408671,0.164698693 C30.6023524,0.164698693 31.4351281,1.034911 31.4351281,2.05533324 L31.4351281,27.9958209 C31.4348319,29.0567525 30.6023524,29.8867512 29.5408671,29.8867512 Z" id="Path"></path>
                <path d="M58.8639924,2.05533324 C58.8639924,3.1150821 58.0312167,3.94626348 56.9694351,3.94626348 L48.6716,3.94626348 L48.6716,27.9961166 C48.6716,29.0570482 47.8032736,29.8870469 46.777339,29.8870469 C45.7155574,29.8870469 44.8830779,29.0570482 44.8830779,27.9961166 L44.8830779,3.94596779 L36.5493959,3.94596779 C35.4879106,3.94596779 34.6539498,3.11478641 34.6539498,2.05503755 C34.6539498,0.994105935 35.4879106,0.164403004 36.5493959,0.164403004 L56.9691388,0.164403004 C58.0315129,0.164403004 58.8639924,0.994401624 58.8639924,2.05533324 Z" id="Path"></path>
                <path d="M93.2234701,27.0493209 C93.2234701,28.6401269 91.9720846,29.8867512 90.4191105,29.8867512 C88.8252531,29.8867512 87.5774227,28.6401269 87.5774227,27.0493209 C87.5774227,25.4981372 88.8252531,24.217213 90.4191105,24.217213 C91.9720846,24.217213 93.2234701,25.4981372 93.2234701,27.0493209 Z" id="Path"></path>
                <path d="M104.100214,29.9630389 C103.302396,29.9630389 102.622489,29.5082694 102.319123,28.7927024 L91.4820772,2.62216878 C91.1052395,1.67685151 91.5596963,0.580437225 92.5068268,0.164698693 C93.490693,-0.25074415 94.5880254,0.243351929 95.0081164,1.18482525 L104.099918,23.1181376 L113.192015,1.18482525 C113.572408,0.24305624 114.709438,-0.25074415 115.656569,0.164698693 C116.63925,0.580141536 117.094892,1.67655582 116.677467,2.62216878 L105.842496,28.7927024 C105.538833,29.5082694 104.855074,29.9630389 104.100214,29.9630389 Z" id="Path"></path>
                <path d="M144.105739,30 C143.535446,30 143.00574,29.7368369 142.626533,29.3213941 L124.326502,7.34875515 L124.326502,28.0747699 C124.326502,29.1291963 123.492837,29.9630389 122.431944,29.9630389 C121.370459,29.9630389 120.536498,29.129492 120.536498,28.0747699 L120.536498,2.12925546 C120.536498,1.3347395 121.031838,0.617102643 121.789365,0.352756806 C122.544522,0.0860454572 123.380556,0.314612943 123.87086,0.919296655 L142.208812,22.852609 L142.208812,2.16858207 C142.208812,1.11001597 143.042476,0.277651836 144.105443,0.277651836 C145.127822,0.277651836 146,1.10972028 146,2.16858207 L146,28.111731 C146,28.9021073 145.467628,29.586627 144.748318,29.8867512 C144.520497,29.9630389 144.293862,30 144.105739,30 Z" id="Path"></path>
            </g>
            <g id="Group">
                <path d="M31.5377922,27.7095309 C31.5377922,30.1218873 29.5716904,32.0768149 27.1455453,32.0768149 C24.7205967,32.0768149 22.7532985,30.1218873 22.7532985,27.7095309 C22.7532985,25.2995539 24.7205967,23.3434365 27.1455453,23.3434365 C29.5716904,23.3434365 31.5377922,25.2995539 31.5377922,27.7095309 Z" id="Path"></path>
                <path d="M27.5011965,0 C12.3110935,0 0,12.2423145 0,27.3445992 C0,31.7118832 1.03345226,35.8367717 2.86525012,39.496796 C3.0641635,39.8935514 3.27563984,40.2831689 3.49459412,40.6712992 L3.49459412,34.5088009 L9.31812002,34.5088009 L9.31812002,42.6152224 L12.2937446,42.6152224 L12.2937446,40.8122752 L15.9809707,37.1451129 L19.9939361,41.133784 L19.9939361,47.7614438 L23.0332728,47.7614438 L23.0332728,45.7000406 L24.9757443,45.7000406 L24.9757443,40.17937 C22.4837932,39.6945789 20.2454942,38.5135325 18.4720243,36.8444234 C18.3176795,36.6998783 18.1687188,36.5538462 18.0218519,36.404245 C17.5369818,35.8986346 17.0939883,35.3570366 16.6937686,34.7833176 C15.2215104,32.6713533 14.3507783,30.111775 14.3507783,27.3445992 C14.3507783,26.8969853 14.3732121,26.4544275 14.4180798,26.0190077 C15.0869073,19.4199 20.6905816,14.2724888 27.5014956,14.2724888 C32.0465917,14.2724888 36.0532756,16.5649858 38.4148112,20.0531026 C39.8263485,22.1365148 40.6495209,24.645532 40.6495209,27.3445992 C40.6495209,28.4872786 40.4978681,29.5936731 40.2193894,30.6486143 C39.951978,31.6637015 39.5652186,32.6309044 39.0752635,33.5347573 L44.7731599,39.2002704 L44.7731599,35.6663512 L47.1035872,35.6663512 L47.1035872,32.580046 L48.0087179,32.580046 L48.0087179,26.1427335 L49.0457596,26.1427335 L49.0457596,32.4500744 L50.4683642,32.4500744 L50.4683642,41.1983236 L50.4683642,42.363012 C52.5002719,39.2954441 53.931551,35.7972151 54.5869182,32.0333919 C54.7038733,31.3668785 54.794506,30.6843044 54.863004,29.9993511 C54.9488508,29.1276193 55,28.239827 55,27.3445992 C55,12.2423145 42.690103,0 27.5011965,0 Z" id="Path"></path>
                <path d="M33.9465884,38.7389753 C33.0438507,39.243396 32.0750079,39.6455049 31.0565115,39.9298364 L31.0565115,53.1652291 L33.7748948,53.1652291 L33.7748948,48.78932 L35.3267183,48.78932 L35.3267183,40.1100717 L34.6800255,39.4685413 L33.9465884,38.7389753 Z" id="Path"></path>
                <g transform="translate(3.494295, 26.142734)" id="Path">
                    <path d="M31.8327224,13.9673381 L31.8327224,22.6465865 L30.2808989,22.6465865 L30.2808989,22.7343247 L27.5625156,22.7343247 L27.5625156,13.7871029 C26.4333457,14.1035555 25.2395662,14.2766527 24.0072006,14.2766527 C23.143049,14.2766527 22.2974428,14.1951602 21.4814493,14.0366365 L21.4814493,19.557307 L19.5389778,19.557307 L19.5389778,21.6187103 L16.4996411,21.6187103 L16.4996411,14.9910504 L12.4866757,11.0023793 L8.79944962,14.6698391 L8.79944962,16.4727863 L5.82352589,16.4727863 L5.82352589,8.36636474 L-5.31340082e-16,8.36636474 L-5.31340082e-16,14.5288631 C1.30325658,16.8436664 2.93225252,18.9529539 4.82985631,20.7930783 C5.05240001,21.0084088 5.27374724,21.2234419 5.50137594,21.431337 L10.9605763,26.9496282 L23.7293201,39.8572665 L36.3093205,27.5557659 L39.2092683,24.7240503 L40.9402634,23.0260917 L39.2092683,21.3025551 L31.8327224,13.9673381 Z"></path>
                    <path d="M45.5514646,6.30734081 L45.5514646,0 L44.5141238,0 L44.5141238,6.43731242 L43.6089931,6.43731242 L43.6089931,9.52361768 L41.2785658,9.52361768 L41.2785658,13.0575368 L45.9355319,17.6919021 C46.298661,17.2121671 46.6420484,16.7223199 46.9740692,16.2205759 L46.9740692,15.0558875 L46.9740692,6.30763823 L45.5514646,6.30763823 L45.5514646,6.30734081 Z"></path>
                </g>
            </g>
        </g>
    </g>
</svg>