<?xml version="1.0" encoding="UTF-8"?>
<svg width="297px" height="111px" viewBox="0 0 297 111" version="1.1" xmlns="http://www.w3.org/2000/svg" xmlns:xlink="http://www.w3.org/1999/xlink">
    <title>Artboard</title>
    <g id="Artboard" stroke="none" stroke-width="1" fill="none" fill-rule="evenodd">
        <g id="SVG-Layer" transform="translate(20.571806, 14.768676)" fill="#FFFFFF" fill-rule="nonzero">
            <g id="Group">
                <path d="M0.00941384282,76.16119 C1.78866186,65.3680655 8.97190239,55.0373937 2.62012151,45.4505587 C2.42138599,45.1510011 2.49118568,44.7493296 2.77911007,44.5341128 C20.8007017,31.0805106 35.7233315,16.5330949 45.9176291,0.317007453 C46.0452724,0.11407108 46.2511171,2.62925193e-15 46.4905699,2.62925193e-15 C46.7300221,2.62925193e-15 46.9358675,0.113424633 47.0635108,0.316038135 C52.0099218,8.15848878 48.6359451,17.8655191 27.6908311,34.3544255 C25.2504238,36.2755358 22.1685748,38.6374355 19.1364782,41.0913956 C18.8650347,41.3111357 18.804606,41.6966518 18.9959092,41.9887759 C19.1868891,42.2799315 19.5633549,42.3791361 19.8729303,42.2195032 C29.3699183,37.3128518 39.0740231,28.1587203 48.6592014,21.4414537 C48.8589062,21.301854 49.0977137,21.2782643 49.320685,21.376501 C49.5436566,21.4747376 49.6874572,21.6670105 49.7191239,21.9087234 C50.6701445,29.2241472 50.7758143,36.673654 23.0058183,48.5451181 C22.6775008,48.6853639 22.5149593,49.054722 22.6329059,49.3914418 C22.7508546,49.7278381 23.1076107,49.9149404 23.4514366,49.8202574 C29.0480308,48.2798141 36.1517555,45.0648196 43.416105,41.6714671 C43.6242119,41.5741998 43.8475078,41.5845405 44.0455976,41.7011967 C44.2436871,41.8175296 44.3613125,42.0075402 44.3777931,42.2366513 C44.931344,50.0309533 38.3527251,54.8749339 21.593009,57.8550046 C20.7651059,58.0020367 19.4657301,58.2447197 18.1414728,58.4815857 C17.8047533,58.5420144 17.5682112,58.8383404 17.5843653,59.1799069 C17.6008459,59.5211505 17.8635645,59.7942112 18.2041612,59.8226457 C22.6406407,60.1929709 28.3846064,59.2632788 34.2781643,57.8333518 C34.5353895,57.7709844 34.7887375,57.8546795 34.958065,58.0582624 C35.1273942,58.2611988 35.1639096,58.5255335 35.0563016,58.7669253 C32.5961801,64.2862913 25.0510034,66.3437477 13.8083974,65.8835861 C13.4836343,65.870337 13.2015269,66.0816755 13.1233259,66.3970672 C13.0451241,66.7121357 13.195711,67.0307578 13.4888045,67.1706815 C15.704947,68.2293105 18.7693659,68.7867422 22.0163337,69.2365621 C22.2777598,69.2727546 22.4823112,69.44273 22.5656831,69.6931707 C22.649055,69.9436099 22.587334,70.2024502 22.3999086,70.3879389 C19.6421713,73.1188561 15.2883941,73.9141055 7.86764957,70.9902871 C7.66115844,70.9088538 7.44755781,70.9285658 7.25948549,71.0465145 C4.96223052,72.4877526 2.9910329,74.4421476 1.20791114,76.6915746 C1.01369969,76.9368434 0.688938396,77.0169838 0.402950874,76.8899869 C0.117611915,76.7633133 -0.041377352,76.4695709 0.00935850359,76.1612891 L0.00941384282,76.16119 Z" id="Path"></path>
            </g>
            <g id="SvgjsG4094" transform="translate(69.999993, 25.000001)">
                <path d="M11.9453714,1.97858592e-15 C14.757437,1.97858592e-15 17.0259942,0.809355034 18.7510429,2.4280651 C20.4760916,4.04677517 21.3386159,6.20308602 21.3386159,8.89699767 C21.3386159,11.5909093 20.487907,13.7413125 18.7864891,15.3482071 C17.0850712,16.9551018 14.8046986,17.7585491 11.9453714,17.7585491 L5.17514605,17.7585491 L5.17514605,24.9895751 C5.17514605,25.3204064 5.05108433,25.6098837 4.80296089,25.8580072 C4.55483745,26.1061306 4.2653601,26.2301923 3.93452885,26.2301923 L1.2406172,26.2301923 C0.90978595,26.2301923 0.620308602,26.1061306 0.372185161,25.8580072 C0.12406172,25.6098837 0,25.3204064 0,24.9895751 L0,14.0012513 C0,13.6704201 0.12406172,13.3809427 0.372185161,13.1328193 C0.620308602,12.8846958 0.90978595,12.7606341 1.2406172,12.7606341 L11.7326941,12.7606341 C13.315958,12.7606341 14.4502366,12.4179874 15.1355299,11.7326941 C15.8208232,11.1182932 16.1634699,10.1848765 16.1634699,8.93244387 C16.1634699,7.68001127 15.8090078,6.71705601 15.1000837,6.0435781 C14.3911596,5.37010019 13.2686964,5.03336123 11.7326941,5.03336123 L1.2406172,5.03336123 C0.90978595,5.03336123 0.620308602,4.90929951 0.372185161,4.66117607 C0.12406172,4.41305263 0,4.12357528 0,3.79274403 L0,1.2406172 C0,0.90978595 0.12406172,0.620308602 0.372185161,0.372185161 C0.620308602,0.12406172 0.90978595,1.97858592e-15 1.2406172,1.97858592e-15 L11.9453714,1.97858592e-15 Z M37.9983327,0.744370323 L47.9232703,24.1743124 C48.0414243,24.3633588 48.1005013,24.5642207 48.1005013,24.7768979 C48.1005013,25.1077291 47.9823473,25.3972065 47.7460393,25.6453299 C47.5097312,25.8934534 47.2143462,26.0175151 46.8598841,26.0175151 L43.917849,26.0175151 C43.6579102,26.0175151 43.4275099,25.9525304 43.226648,25.822561 C43.0257862,25.6925915 42.8780937,25.5094528 42.7835705,25.2731448 L40.1959974,19.1763974 L30.1647212,19.1763974 L27.6125944,25.2731448 C27.5180711,25.5094528 27.3703786,25.6925915 27.1695168,25.822561 C26.9686549,25.9525304 26.7382546,26.0175151 26.4783158,26.0175151 L23.5362807,26.0175151 C23.3236034,26.0175151 23.1227416,25.9643458 22.9336952,25.8580072 C22.7446488,25.7516685 22.5969562,25.6157914 22.4906176,25.4503758 C22.384279,25.2849602 22.3192943,25.1018214 22.2956635,24.9009596 C22.2720327,24.7000978 22.3074789,24.5051436 22.4020021,24.3160972 L32.3978321,0.744370323 C32.4923554,0.508062284 32.6400479,0.324923554 32.8409097,0.194954132 C33.0417716,0.0649847107 33.2721719,5.5312996e-15 33.5321107,5.5312996e-15 L36.8640541,5.5312996e-15 C37.1239929,5.5312996e-15 37.3543933,0.0649847107 37.5552551,0.194954132 C37.7561169,0.324923554 37.9038095,0.508062284 37.9983327,0.744370323 Z M35.1980824,7.19557979 L32.2560473,14.2493748 L38.1401175,14.2493748 L35.1980824,7.19557979 Z M72.7001682,-1.57412775e-15 C73.0309994,-1.57412775e-15 73.3204768,0.12406172 73.5686002,0.372185161 C73.8167237,0.620308602 73.9407854,0.90978595 73.9407854,1.2406172 L73.9407854,24.7768979 C73.9407854,25.1077291 73.8167237,25.3972065 73.5686002,25.6453299 C73.3204768,25.8934534 73.0309994,26.0175151 72.7001682,26.0175151 L69.5809021,26.0175151 C69.1791784,26.0175151 68.8483472,25.8520995 68.5884083,25.5212682 L56.2885749,8.68432043 L56.2885749,24.7768979 C56.2885749,25.1077291 56.1645132,25.3972065 55.9163897,25.6453299 C55.6682663,25.8934534 55.3787889,26.0175151 55.0479577,26.0175151 L52.3894922,26.0175151 C52.058661,26.0175151 51.7691836,25.8934534 51.5210602,25.6453299 C51.2729368,25.3972065 51.148875,25.1077291 51.148875,24.7768979 L51.148875,1.2406172 C51.148875,0.90978595 51.2729368,0.620308602 51.5210602,0.372185161 C51.7691836,0.12406172 52.058661,-1.57412775e-15 52.3894922,-1.57412775e-15 L55.4733122,-1.57412775e-15 C55.6623586,-1.57412775e-15 55.851405,0.0413539068 56.0404514,0.12406172 C56.2294979,0.206769534 56.3712827,0.330831255 56.4658059,0.496246882 L68.8010856,17.2623022 L68.8010856,1.2406172 C68.8010856,0.90978595 68.9192396,0.620308602 69.1555476,0.372185161 C69.3918556,0.12406172 69.6754253,-1.57412775e-15 70.0062565,-1.57412775e-15 L72.7001682,-1.57412775e-15 L72.7001682,-1.57412775e-15 Z M95.3502937,0.886155146 C96.8154036,1.50055605 98.1032824,2.37489579 99.2139302,3.50917438 C101.671534,6.01403959 102.900336,9.18056731 102.900336,13.0087575 C102.900336,16.8369478 101.671534,20.0034755 99.2139302,22.5083407 C98.1032824,23.6426193 96.8154036,24.516959 95.3502937,25.1313599 C93.9324455,25.72213 92.4318894,26.0175151 90.8486256,26.0175151 L80.923688,26.0175151 C80.5928567,26.0175151 80.3033793,25.8934534 80.0552559,25.6453299 C79.8071325,25.3972065 79.6830707,25.1077291 79.6830707,24.7768979 L79.6830707,1.2406172 C79.6830707,0.90978595 79.8071325,0.620308602 80.0552559,0.372185161 C80.3033793,0.12406172 80.5928567,5.5312996e-15 80.923688,5.5312996e-15 L90.8486256,5.5312996e-15 C92.3846278,5.5312996e-15 93.8851839,0.295385049 95.3502937,0.886155146 Z M84.8227706,4.99791502 L84.8227706,21.0196001 L90.742287,21.0196001 C92.8217977,21.0196001 94.5114002,20.2575066 95.8110944,18.7333198 C97.1107886,17.2091329 97.7606357,15.3009455 97.7606357,13.0087575 C97.7606357,10.7165696 97.1107886,8.80838215 95.8110944,7.2841953 C94.5114002,5.76000845 92.8217977,4.99791502 90.742287,4.99791502 L84.8227706,4.99791502 Z M111.088409,3.75494276e-15 C111.41924,3.75494276e-15 111.708718,0.12406172 111.956841,0.372185161 C112.204965,0.620308602 112.329026,0.90978595 112.329026,1.2406172 L112.329026,24.7768979 C112.329026,25.1077291 112.204965,25.3972065 111.956841,25.6453299 C111.708718,25.8934534 111.41924,26.0175151 111.088409,26.0175151 L108.429944,26.0175151 C108.099112,26.0175151 107.809635,25.8934534 107.561512,25.6453299 C107.313388,25.3972065 107.189326,25.1077291 107.189326,24.7768979 L107.189326,1.2406172 C107.189326,0.90978595 107.313388,0.620308602 107.561512,0.372185161 C107.809635,0.12406172 108.099112,3.75494276e-15 108.429944,3.75494276e-15 L111.088409,3.75494276e-15 Z M129.76856,3.75494276e-15 C133.644011,3.75494276e-15 136.822355,1.29969421 139.303589,3.89908264 C141.737562,6.45120946 142.954548,9.58229098 142.954548,13.2923272 C142.954548,17.0023634 141.737562,20.1334449 139.303589,22.6855717 C136.822355,25.2849602 133.644011,26.5846544 129.76856,26.5846544 C125.893108,26.5846544 122.714765,25.2849602 120.23353,22.6855717 C117.799557,20.1334449 116.582571,17.0023634 116.582571,13.2923272 C116.582571,9.58229098 117.799557,6.45120946 120.23353,3.89908264 C122.714765,1.29969421 125.893108,3.75494276e-15 129.76856,3.75494276e-15 Z M129.76856,21.5158469 C132.202532,21.5158469 134.163889,20.7360304 135.65263,19.1763974 C137.094109,17.6640259 137.814848,15.7085769 137.814848,13.3100503 C137.814848,10.9115237 137.082293,8.93835157 135.617184,7.39053392 C134.152074,5.84271626 132.202532,5.06880744 129.76856,5.06880744 C127.334587,5.06880744 125.385045,5.84271626 123.919936,7.39053392 C122.454826,8.93835157 121.722271,10.9115237 121.722271,13.3100503 C121.722271,15.7085769 122.44301,17.6640259 123.884489,19.1763974 C125.37323,20.7360304 127.334587,21.5158469 129.76856,21.5158469 Z M168.759386,-1.57412775e-15 C169.090217,-1.57412775e-15 169.379695,0.12406172 169.627818,0.372185161 C169.875942,0.620308602 170.000003,0.90978595 170.000003,1.2406172 L170.000003,24.7768979 C170.000003,25.1077291 169.875942,25.3972065 169.627818,25.6453299 C169.379695,25.8934534 169.090217,26.0175151 168.759386,26.0175151 L165.64012,26.0175151 C165.238396,26.0175151 164.907565,25.8520995 164.647626,25.5212682 L152.347793,8.68432043 L152.347793,24.7768979 C152.347793,25.1077291 152.223731,25.3972065 151.975608,25.6453299 C151.727484,25.8934534 151.438007,26.0175151 151.107176,26.0175151 L148.44871,26.0175151 C148.117879,26.0175151 147.828401,25.8934534 147.580278,25.6453299 C147.332155,25.3972065 147.208093,25.1077291 147.208093,24.7768979 L147.208093,1.2406172 C147.208093,0.90978595 147.332155,0.620308602 147.580278,0.372185161 C147.828401,0.12406172 148.117879,-1.57412775e-15 148.44871,-1.57412775e-15 L151.53253,-1.57412775e-15 C151.721576,-1.57412775e-15 151.910623,0.0413539068 152.099669,0.12406172 C152.288716,0.206769534 152.430501,0.330831255 152.525024,0.496246882 L164.860303,17.2623022 L164.860303,1.2406172 C164.860303,0.90978595 164.978457,0.620308602 165.214765,0.372185161 C165.451073,0.12406172 165.734643,-1.57412775e-15 166.065474,-1.57412775e-15 L168.759386,-1.57412775e-15 L168.759386,-1.57412775e-15 Z" id="Shape"></path>
            </g>
        </g>
    </g>
</svg>