<svg width="174" height="56" viewBox="0 0 174 56" fill="none" xmlns="http://www.w3.org/2000/svg">
<path d="M0.419639 55.2316C1.70424 47.4827 6.89048 40.0658 2.30455 33.1829C2.16106 32.9679 2.21146 32.6795 2.41934 32.525C15.4308 22.866 26.2048 12.4217 33.565 0.779353C33.6571 0.633655 33.8058 0.551758 33.9786 0.551758C34.1515 0.551758 34.3001 0.633191 34.3923 0.778657C37.9636 6.40913 35.5276 13.3783 20.4054 25.2165C18.6434 26.5957 16.4184 28.2915 14.2292 30.0533C14.0332 30.211 13.9896 30.4878 14.1277 30.6975C14.2656 30.9066 14.5374 30.9778 14.7609 30.8632C21.6177 27.3405 28.624 20.7683 35.5444 15.9456C35.6886 15.8454 35.861 15.8285 36.022 15.899C36.1829 15.9695 36.2868 16.1076 36.3096 16.2811C36.9963 21.5332 37.0726 26.8816 17.0229 35.4047C16.7858 35.5053 16.6685 35.7705 16.7536 36.0123C16.8388 36.2538 17.0963 36.3881 17.3446 36.3201C21.3853 35.2142 26.5141 32.906 31.7589 30.4697C31.9092 30.3999 32.0704 30.4073 32.2134 30.4911C32.3564 30.5746 32.4413 30.711 32.4532 30.8755C32.8529 36.4714 28.1032 39.9491 16.0028 42.0887C15.4051 42.1942 14.4669 42.3685 13.5108 42.5385C13.2677 42.5819 13.0969 42.7947 13.1086 43.0399C13.1205 43.2849 13.3102 43.4809 13.5561 43.5013C16.7592 43.7672 20.9063 43.0998 25.1614 42.0731C25.3471 42.0284 25.53 42.0884 25.6523 42.2346C25.7745 42.3803 25.8009 42.5701 25.7232 42.7434C23.947 46.706 18.4995 48.1832 10.3824 47.8528C10.1479 47.8433 9.94423 47.995 9.88777 48.2214C9.83131 48.4476 9.94003 48.6764 10.1516 48.7769C11.7517 49.5369 13.9642 49.9371 16.3085 50.2601C16.4972 50.286 16.6449 50.4081 16.7051 50.5879C16.7653 50.7677 16.7207 50.9535 16.5854 51.0867C14.5943 53.0473 11.4509 53.6183 6.09322 51.5191C5.94413 51.4607 5.78992 51.4748 5.65413 51.5595C3.99553 52.5942 2.57234 53.9974 1.28494 55.6124C1.14472 55.7885 0.91025 55.846 0.703769 55.7548C0.497757 55.6639 0.382968 55.453 0.419599 55.2317L0.419639 55.2316Z" fill="#22389E"/>
<path d="M59.5767 18.5C61.607 18.5 63.2449 19.0811 64.4904 20.2432C65.7358 21.4054 66.3586 22.9535 66.3586 24.8876C66.3586 26.8217 65.7444 28.3656 64.516 29.5192C63.2875 30.6729 61.6411 31.2497 59.5767 31.2497H54.6887V36.4412C54.6887 36.6788 54.5991 36.8866 54.42 37.0647C54.2408 37.2429 54.0318 37.3319 53.793 37.3319H51.848C51.6091 37.3319 51.4001 37.2429 51.221 37.0647C51.0418 36.8866 50.9523 36.6788 50.9523 36.4412V28.5522C50.9523 28.3147 51.0418 28.1068 51.221 27.9287C51.4001 27.7506 51.6091 27.6615 51.848 27.6615H59.4232C60.5663 27.6615 61.3852 27.4155 61.88 26.9235C62.3748 26.4824 62.6222 25.8122 62.6222 24.913C62.6222 24.0139 62.3662 23.3225 61.8544 22.839C61.3426 22.3555 60.5322 22.1137 59.4232 22.1137H51.848C51.6091 22.1137 51.4001 22.0246 51.221 21.8465C51.0418 21.6683 50.9523 21.4605 50.9523 21.223V19.3907C50.9523 19.1532 51.0418 18.9453 51.221 18.7672C51.4001 18.5891 51.6091 18.5 51.848 18.5H59.5767ZM78.3867 19.0344L85.5525 35.8559C85.6378 35.9916 85.6804 36.1359 85.6804 36.2885C85.6804 36.5261 85.5951 36.7339 85.4245 36.912C85.2539 37.0902 85.0406 37.1792 84.7847 37.1792H82.6606C82.4729 37.1792 82.3066 37.1326 82.1615 37.0393C82.0165 36.946 81.9099 36.8145 81.8416 36.6448L79.9734 32.2677H72.7309L70.8883 36.6448C70.8201 36.8145 70.7135 36.946 70.5684 37.0393C70.4234 37.1326 70.2571 37.1792 70.0694 37.1792H67.9453C67.7917 37.1792 67.6467 37.1411 67.5102 37.0647C67.3737 36.9884 67.2671 36.8908 67.1903 36.7721C67.1135 36.6533 67.0666 36.5218 67.0495 36.3776C67.0325 36.2334 67.0581 36.0934 67.1263 35.9577L74.3432 19.0344C74.4115 18.8648 74.5181 18.7333 74.6631 18.64C74.8081 18.5467 74.9745 18.5 75.1622 18.5H77.5678C77.7555 18.5 77.9218 18.5467 78.0668 18.64C78.2119 18.7333 78.3185 18.8648 78.3867 19.0344ZM76.365 23.6661L74.2409 28.7303H78.4891L76.365 23.6661ZM103.441 18.5C103.68 18.5 103.889 18.5891 104.068 18.7672C104.247 18.9453 104.337 19.1532 104.337 19.3907V36.2885C104.337 36.5261 104.247 36.7339 104.068 36.912C103.889 37.0902 103.68 37.1792 103.441 37.1792H101.189C100.899 37.1792 100.66 37.0605 100.473 36.823L91.5921 24.7349V36.2885C91.5921 36.5261 91.5026 36.7339 91.3234 36.912C91.1443 37.0902 90.9353 37.1792 90.6964 37.1792H88.777C88.5382 37.1792 88.3292 37.0902 88.15 36.912C87.9709 36.7339 87.8813 36.5261 87.8813 36.2885V19.3907C87.8813 19.1532 87.9709 18.9453 88.15 18.7672C88.3292 18.5891 88.5382 18.5 88.777 18.5H91.0035C91.14 18.5 91.2765 18.5297 91.413 18.5891C91.5495 18.6484 91.6519 18.7375 91.7201 18.8563L100.626 30.8934V19.3907C100.626 19.1532 100.711 18.9453 100.882 18.7672C101.053 18.5891 101.257 18.5 101.496 18.5H103.441ZM119.794 19.1362C120.852 19.5773 121.782 20.2051 122.584 21.0194C124.358 22.8178 125.245 25.0912 125.245 27.8396C125.245 30.5881 124.358 32.8615 122.584 34.6598C121.782 35.4742 120.852 36.1019 119.794 36.543C118.771 36.9672 117.687 37.1792 116.544 37.1792H109.378C109.14 37.1792 108.931 37.0902 108.751 36.912C108.572 36.7339 108.483 36.5261 108.483 36.2885V19.3907C108.483 19.1532 108.572 18.9453 108.751 18.7672C108.931 18.5891 109.14 18.5 109.378 18.5H116.544C117.653 18.5 118.737 18.7121 119.794 19.1362ZM112.194 22.0882V33.591H116.467C117.969 33.591 119.189 33.0439 120.127 31.9496C121.065 30.8553 121.535 29.4853 121.535 27.8396C121.535 26.1939 121.065 24.824 120.127 23.7297C119.189 22.6354 117.969 22.0882 116.467 22.0882H112.194ZM131.157 18.5C131.396 18.5 131.605 18.5891 131.784 18.7672C131.963 18.9453 132.053 19.1532 132.053 19.3907V36.2885C132.053 36.5261 131.963 36.7339 131.784 36.912C131.605 37.0902 131.396 37.1792 131.157 37.1792H129.238C128.999 37.1792 128.79 37.0902 128.611 36.912C128.432 36.7339 128.342 36.5261 128.342 36.2885V19.3907C128.342 19.1532 128.432 18.9453 128.611 18.7672C128.79 18.5891 128.999 18.5 129.238 18.5H131.157ZM144.644 18.5C147.442 18.5 149.737 19.4331 151.528 21.2993C153.286 23.1316 154.164 25.3796 154.164 28.0432C154.164 30.7068 153.286 32.9548 151.528 34.7871C149.737 36.6533 147.442 37.5864 144.644 37.5864C141.846 37.5864 139.551 36.6533 137.76 34.7871C136.003 32.9548 135.124 30.7068 135.124 28.0432C135.124 25.3796 136.003 23.1316 137.76 21.2993C139.551 19.4331 141.846 18.5 144.644 18.5ZM144.644 33.9473C146.401 33.9473 147.817 33.3874 148.892 32.2677C149.933 31.1819 150.453 29.778 150.453 28.0559C150.453 26.3339 149.925 24.9173 148.867 23.806C147.809 22.6948 146.401 22.1391 144.644 22.1391C142.887 22.1391 141.479 22.6948 140.421 23.806C139.364 24.9173 138.835 26.3339 138.835 28.0559C138.835 29.778 139.355 31.1819 140.396 32.2677C141.471 33.3874 142.887 33.9473 144.644 33.9473ZM172.795 18.5C173.034 18.5 173.243 18.5891 173.422 18.7672C173.601 18.9453 173.691 19.1532 173.691 19.3907V36.2885C173.691 36.5261 173.601 36.7339 173.422 36.912C173.243 37.0902 173.034 37.1792 172.795 37.1792H170.543C170.253 37.1792 170.014 37.0605 169.826 36.823L160.946 24.7349V36.2885C160.946 36.5261 160.856 36.7339 160.677 36.912C160.498 37.0902 160.289 37.1792 160.05 37.1792H158.131C157.892 37.1792 157.683 37.0902 157.504 36.912C157.325 36.7339 157.235 36.5261 157.235 36.2885V19.3907C157.235 19.1532 157.325 18.9453 157.504 18.7672C157.683 18.5891 157.892 18.5 158.131 18.5H160.357C160.494 18.5 160.63 18.5297 160.767 18.5891C160.903 18.6484 161.006 18.7375 161.074 18.8563L169.98 30.8934V19.3907C169.98 19.1532 170.065 18.9453 170.236 18.7672C170.407 18.5891 170.611 18.5 170.85 18.5H172.795Z" fill="#22389E"/>
</svg>
