<?xml version="1.0" encoding="UTF-8"?>
<svg width="254px" height="151px" viewBox="0 0 254 151" version="1.1" xmlns="http://www.w3.org/2000/svg" xmlns:xlink="http://www.w3.org/1999/xlink">
    <title>acons</title>
    <g id="acons" stroke="none" stroke-width="1" fill="none" fill-rule="evenodd">
        <g id="acons_logo" transform="translate(24.000000, 57.000000)" fill="#8C98A4" fill-rule="nonzero">
            <path d="M189.107661,38 C181.528371,38 177.11719,34.3111172 174.743266,31.2180635 C174.137418,30.5002126 173.583497,29.7388376 173.085836,28.9398937 C172.889646,28.5269752 173.04019,28.0303553 173.431134,27.8008087 C173.81706,27.6481546 174.255412,27.7952422 174.475661,28.1512964 C177.500503,33.4121366 183.081299,36.6127439 189.081764,36.5279518 C191.012209,36.5445833 192.939934,36.3773692 194.839608,36.0285068 C201.313944,34.4951233 203.653338,30.4908016 203.653338,28.1425342 C203.653338,24.751566 202.177189,20.7034334 190.65287,19.590635 C182.61606,18.8107999 178.006332,16.9619775 175.710101,13.6936799 C174.671983,12.1862104 174.355126,10.2854422 174.846856,8.51522456 C175.42523,6.16695715 177.833683,0.629251926 187.614248,0.0684716497 C188.120685,0.0275814213 188.615612,0.00713630704 189.099029,0.00713630704 L189.28031,0.00713630704 C195.011123,-0.159011571 200.446582,2.5847778 203.774192,7.32356647 C203.912311,7.5075725 204.059063,7.72662729 204.18855,7.9281577 L204.387096,8.22607223 C204.560144,8.4821142 204.631096,8.79523881 204.585642,9.10229141 C204.564074,9.21873505 204.495117,9.32054301 204.395729,9.38268154 C204.260404,9.48341523 204.097382,9.53857269 203.929576,9.540401 C203.637744,9.54183106 203.364957,9.39349898 203.204451,9.14610237 C200.228545,4.17960861 194.858237,1.21331673 189.133559,1.37403823 L188.11493,1.37403823 L187.614248,1.37403823 L187.553821,1.37403823 C185.266222,1.52299549 177.686932,2.49559878 176.133091,8.79561469 C175.741156,10.1856785 175.992007,11.6811781 176.815054,12.8612717 C178.196246,14.841527 181.027689,17.2423676 190.799621,18.1974465 C203.316672,19.4153912 205,23.9191578 205,28.1600586 C204.982735,31.9978986 200.675143,38 189.107661,38 Z" id="_Path_"></path>
            <path d="M106.727447,37.997913 C96.2708378,37.8478965 87.9012257,29.2761077 88.0008808,18.8189869 C88.1005358,8.36186606 96.6319892,-0.0488604476 107.089558,0.000213660722 C117.547128,0.0497188428 125.998918,8.54049245 126,18.998088 C126.002907,24.0854752 123.964517,28.9613247 120.341633,32.5329423 C116.718749,36.1045598 111.81432,38.0732825 106.727447,37.997913 L106.727447,37.997913 Z M106.727447,1.47534344 C97.1032542,1.60314535 89.3323551,9.37397776 89.2045521,18.998088 C89.4189219,28.6118397 97.2738793,36.2935334 106.890103,36.2935334 C116.506327,36.2935334 124.361284,28.6118397 124.575654,18.998088 C124.474167,9.23566929 116.490165,1.39725531 106.727447,1.47534344 Z" id="_Compound_Path_"></path>
            <circle id="_Path_2" cx="21" cy="28" r="2"></circle>
            <path d="M41.4064205,37.2409913 L21.611653,2.05819599 L1.65796236,37.2409913 C1.39309036,37.6631848 1.03109863,38.1205612 0.483696492,37.9710343 C0.285674632,37.894189 0.129041697,37.7381878 0.0518544025,37.5409339 C-0.0253328918,37.34368 -0.0160094535,37.1232285 0.0775594246,36.9331418 L20.9583021,0.343034723 C21.0747777,0.130961335 21.298362,-0.000657359956 21.5410205,0 C21.7525389,0.0112172331 21.944555,0.126651108 22.0531064,0.307851928 L42.9338491,36.8627762 C43.0272884,37.0667342 43.0214759,37.3021535 42.9180843,37.5012884 C42.8146928,37.7004233 42.6251888,37.8411888 42.4041051,37.8830773 C41.7684123,37.9446472 41.4064205,37.2409913 41.4064205,37.2409913 Z" id="_Path_3"></path>
            <path d="M78.7040363,28.8715426 C75.391287,33.6489574 69.9981866,36.4843245 64.2515675,36.4697795 C54.7611345,36.4361051 47.071827,28.6247508 47.0244322,18.9692107 C47.1500781,9.34278978 54.7898163,1.5700917 64.2515675,1.44225911 C69.9718764,1.42789316 75.3436062,4.23754623 78.6608172,8.97893622 C78.9241608,9.25086276 79.3384936,9.29851553 79.6548566,9.09326155 C79.9186372,8.88474812 79.9954328,8.51269047 79.8363769,8.21383598 C76.2735631,3.06225505 70.4688029,-0.00219096684 64.277499,0 C54.1201355,0.222343585 46,8.66345952 46,19 C46,29.3365216 54.1201355,37.7776375 64.277499,38 C70.5059508,38.0090865 76.3439882,34.9144285 79.9055274,29.7157911 C80.0799972,29.3981128 80.0073627,28.9990604 79.732651,28.7660115 C79.586104,28.632572 79.3911521,28.5679924 79.1954768,28.5880678 C78.9998016,28.6081431 78.8214473,28.7110222 78.7040363,28.8715426 L78.7040363,28.8715426 Z" id="_Path_4"></path>
            <path d="M164.965079,0.69327575 C164.965079,0.310390126 164.656298,0 164.275397,0 C163.894496,0 163.585714,0.310390126 163.585714,0.69327575 L163.585714,35.5062492 L133.361905,0.359801338 L133.361905,0.315923126 L133.274603,0.245717987 C133.096324,0.10226293 132.87439,0.0248009636 132.646032,0.0263269272 C132.336109,0.068444309 132.081516,0.293238726 132,0.596743683 C132,0.596743683 132,37.2789289 132,37.3052558 C132,37.6881415 132.308781,37.9985316 132.689683,37.9985316 C132.86926,38.0106038 133.045863,37.9478395 133.177985,37.8249899 C133.310107,37.7021404 133.386097,37.5300389 133.388095,37.3491341 L133.388095,2.36942345 L163.707937,37.7879162 C163.895146,37.9504016 164.145829,38.0182447 164.388889,37.9722047 C164.712496,37.9477542 164.971023,37.6915931 165,37.3666853 L165,0.69327575 L164.965079,0.69327575 Z" id="_Path_5"></path>
        </g>
    </g>
</svg>