<?xml version="1.0" encoding="UTF-8"?>
<svg width="254px" height="151px" viewBox="0 0 254 151" version="1.1" xmlns="http://www.w3.org/2000/svg" xmlns:xlink="http://www.w3.org/1999/xlink">
    <title>leadnhadat</title>
    <g id="leadnhadat" stroke="none" stroke-width="1" fill="none" fill-rule="evenodd">
        <g id="leadnhadat-logo" transform="translate(6.000000, 41.000000)" fill-rule="nonzero">
            <g id="SvgjsG1023" fill="#8C98A4">
                <circle id="Oval" cx="34.5" cy="34.5" r="34.5"></circle>
            </g>
            <g id="SvgjsG1025" transform="translate(77.000000, 23.000000)" fill="#8C98A4">
                <path d="M1.35485068,24 C0.985345947,24 0.667161318,23.8681876 0.400296791,23.6045627 C0.133432264,23.3409379 0,23.026616 0,22.661597 L0,1.33840304 C0,0.97338403 0.133432264,0.659062104 0.400296791,0.395437262 C0.667161318,0.131812421 0.985345947,0 1.35485068,0 C1.72435541,0 2.04254004,0.131812421 2.30940456,0.395437262 C2.57626909,0.659062104 2.70970135,0.97338403 2.70970135,1.33840304 L2.70970135,22.661597 C2.70970135,23.026616 2.57626909,23.3409379 2.30940456,23.6045627 C2.04254004,23.8681876 1.72435541,24 1.35485068,24 Z M20.9693934,16.8821293 L9.29920237,16.8821293 C9.38131454,17.5107731 9.57119891,18.0937896 9.8688555,18.6311787 C10.1665121,19.1685678 10.5462808,19.634981 11.0081618,20.0304183 C11.4700427,20.4258555 11.9935077,20.7351077 12.5785569,20.9581749 C13.163606,21.1812421 13.7845792,21.2927757 14.4414765,21.2927757 C14.8315093,21.2927757 15.185618,21.2623574 15.5038026,21.2015209 C15.8219873,21.1406844 16.1196439,21.0443599 16.3967724,20.9125475 C16.6739009,20.7807351 16.9510295,20.6185044 17.228158,20.4258555 C17.5052866,20.2332066 17.8080752,20.0152091 18.1365238,19.7718631 C18.2596921,19.6704689 18.3879923,19.5842839 18.5214246,19.513308 C18.6548569,19.4423321 18.8344772,19.4068441 19.0602857,19.4068441 C19.4503184,19.4068441 19.7787671,19.5386565 20.0456316,19.8022814 C20.3124961,20.0659062 20.4459284,20.3802281 20.4459284,20.7452471 C20.4459284,20.9683143 20.4048723,21.1508238 20.3227602,21.2927757 C20.240648,21.4347275 20.1482718,21.5665399 20.0456316,21.6882129 C19.717183,22.0532319 19.3322822,22.382763 18.8909293,22.6768061 C18.4495765,22.9708492 17.9774315,23.2141952 17.4744945,23.4068441 C16.9715575,23.599493 16.4583565,23.7465146 15.9348915,23.8479087 C15.4114265,23.9493029 14.9136215,24 14.4414765,24 C13.3534904,24 12.3270884,23.792142 11.3622705,23.3764259 C10.3974525,22.9607098 9.55580288,22.3979721 8.83732146,21.6882129 C8.11884004,20.9784537 7.54918692,20.1520913 7.12836208,19.2091255 C6.70753725,18.2661597 6.49712484,17.2572877 6.49712484,16.1825095 C6.49712484,15.1077313 6.70753725,14.0937896 7.12836208,13.1406844 C7.54918692,12.1875792 8.11884004,11.356147 8.83732146,10.6463878 C9.55580288,9.93662864 10.3974525,9.373891 11.3622705,8.9581749 C12.3270884,8.54245881 13.3534904,8.33460076 14.4414765,8.33460076 C15.4884066,8.33460076 16.4737526,8.50697085 17.3975144,8.85171103 C18.3212762,9.1964512 19.1423978,9.68821293 19.8608792,10.3269962 C20.5793607,10.9657795 21.1541458,11.7262357 21.5852347,12.608365 C22.0163235,13.4904943 22.26266,14.4588086 22.3242441,15.513308 C22.3447722,15.9188847 22.2164719,16.2484157 21.9393434,16.5019011 C21.6622148,16.7553866 21.3388982,16.8821293 20.9693934,16.8821293 L20.9693934,16.8821293 Z M14.4414765,11.0418251 C13.3740184,11.0418251 12.4092005,11.3307985 11.5470228,11.9087452 C10.6848451,12.486692 10.0484759,13.2420786 9.63791504,14.1749049 L19.214246,14.1749049 C18.8242132,13.2217997 18.1929759,12.4613435 17.3205342,11.8935361 C16.4480925,11.3257288 15.4884066,11.0418251 14.4414765,11.0418251 L14.4414765,11.0418251 Z M39.2290855,24 C38.8390527,24 38.5106041,23.8681876 38.2437396,23.6045627 C37.976875,23.3409379 37.8434428,23.026616 37.8434428,22.661597 L37.8434428,22.0836502 C37.1249614,22.6920152 36.3243678,23.1634981 35.441662,23.4980989 C34.5589563,23.8326996 33.6351945,24 32.6703766,24 C31.5823904,24 30.5559884,23.792142 29.5911705,23.3764259 C28.6263526,22.9607098 27.7847029,22.3979721 27.0662215,21.6882129 C26.3477401,20.9784537 25.7780869,20.1520913 25.3572621,19.2091255 C24.9364373,18.2661597 24.7260249,17.2572877 24.7260249,16.1825095 C24.7260249,15.1077313 24.9364373,14.0937896 25.3572621,13.1406844 C25.7780869,12.1875792 26.3477401,11.356147 27.0662215,10.6463878 C27.7847029,9.93662864 28.6263526,9.373891 29.5911705,8.9581749 C30.5559884,8.54245881 31.5823904,8.33460076 32.6703766,8.33460076 C33.6351945,8.33460076 34.5589563,8.50190114 35.441662,8.8365019 C36.3243678,9.17110266 37.1249614,9.64258555 37.8434428,10.2509506 L37.8434428,9.6730038 C37.8434428,9.30798479 37.976875,8.99366286 38.2437396,8.73003802 C38.5106041,8.46641318 38.8390527,8.33460076 39.2290855,8.33460076 C39.5985902,8.33460076 39.9167749,8.46641318 40.1836394,8.73003802 C40.4505039,8.99366286 40.5839362,9.30798479 40.5839362,9.6730038 L40.5839362,22.661597 C40.5839362,23.026616 40.4505039,23.3409379 40.1836394,23.6045627 C39.9167749,23.8681876 39.5985902,24 39.2290855,24 Z M32.6703766,11.0418251 C31.9518951,11.0418251 31.2796018,11.1787072 30.6534966,11.4524715 C30.0273913,11.7262357 29.4782662,12.0963245 29.0061213,12.5627376 C28.5339764,13.0291508 28.1593396,13.5716096 27.8822111,14.1901141 C27.6050825,14.8086185 27.4665183,15.4727503 27.4665183,16.1825095 C27.4665183,16.8922687 27.6050825,17.5564005 27.8822111,18.1749049 C28.1593396,18.7934094 28.5339764,19.3358682 29.0061213,19.8022814 C29.4782662,20.2686946 30.0273913,20.6337136 30.6534966,20.8973384 C31.2796018,21.1609632 31.9518951,21.2927757 32.6703766,21.2927757 C33.388858,21.2927757 34.0611513,21.1609632 34.6872565,20.8973384 C35.3133618,20.6337136 35.8624869,20.2686946 36.3346318,19.8022814 C36.8067767,19.3358682 37.1762815,18.7934094 37.443146,18.1749049 C37.7100105,17.5564005 37.8434428,16.8922687 37.8434428,16.1825095 C37.8434428,15.4727503 37.7100105,14.8086185 37.443146,14.1901141 C37.1762815,13.5716096 36.8067767,13.0291508 36.3346318,12.5627376 C35.8624869,12.0963245 35.3133618,11.7262357 34.6872565,11.4524715 C34.0611513,11.1787072 33.388858,11.0418251 32.6703766,11.0418251 L32.6703766,11.0418251 Z M58.8436283,24 C58.4535955,24 58.1251468,23.8681876 57.8582823,23.6045627 C57.5914178,23.3409379 57.4579855,23.026616 57.4579855,22.661597 L57.4579855,22.0836502 C56.7395041,22.6920152 55.9389105,23.1634981 55.0562048,23.4980989 C54.173499,23.8326996 53.2497372,24 52.2849193,24 C51.1969332,24 50.1705311,23.792142 49.2057132,23.3764259 C48.2408953,22.9607098 47.3992457,22.3979721 46.6807642,21.6882129 C45.9622828,20.9784537 45.3926297,20.1520913 44.9718049,19.2091255 C44.55098,18.2661597 44.3405676,17.2572877 44.3405676,16.1825095 C44.3405676,15.1077313 44.55098,14.0937896 44.9718049,13.1406844 C45.3926297,12.1875792 45.9622828,11.356147 46.6807642,10.6463878 C47.3992457,9.93662864 48.2408953,9.373891 49.2057132,8.9581749 C50.1705311,8.54245881 51.1969332,8.33460076 52.2849193,8.33460076 C53.2497372,8.33460076 54.173499,8.50190114 55.0562048,8.8365019 C55.9389105,9.17110266 56.7395041,9.65272497 57.4579855,10.2813688 L57.4579855,1.33840304 C57.4579855,0.97338403 57.5914178,0.659062104 57.8582823,0.395437262 C58.1251468,0.131812421 58.4535955,0 58.8436283,0 C59.213133,0 59.5313176,0.131812421 59.7981822,0.395437262 C60.0650467,0.659062104 60.1984789,0.97338403 60.1984789,1.33840304 L60.1984789,22.661597 C60.1984789,23.026616 60.0650467,23.3409379 59.7981822,23.6045627 C59.5313176,23.8681876 59.213133,24 58.8436283,24 Z M52.2849193,11.0418251 C51.5664379,11.0418251 50.8941446,11.1787072 50.2680393,11.4524715 C49.6419341,11.7262357 49.092809,12.0963245 48.6206641,12.5627376 C48.1485191,13.0291508 47.7738824,13.5716096 47.4967538,14.1901141 C47.2196253,14.8086185 47.081061,15.4727503 47.081061,16.1825095 C47.081061,16.8922687 47.2196253,17.5564005 47.4967538,18.1749049 C47.7738824,18.7934094 48.1485191,19.3307985 48.6206641,19.7870722 C49.092809,20.243346 49.6419341,20.608365 50.2680393,20.8821293 C50.8941446,21.1558935 51.5664379,21.2927757 52.2849193,21.2927757 C52.9828727,21.2927757 53.650034,21.1558935 54.2864033,20.8821293 C54.9227725,20.608365 55.4718976,20.243346 55.9337785,19.7870722 C56.3956594,19.3307985 56.7651642,18.7934094 57.0422927,18.1749049 C57.3194213,17.5564005 57.4579855,16.8922687 57.4579855,16.1825095 C57.4579855,15.4727503 57.3194213,14.8086185 57.0422927,14.1901141 C56.7651642,13.5716096 56.3956594,13.0291508 55.9337785,12.5627376 C55.4718976,12.0963245 54.9227725,11.7262357 54.2864033,11.4524715 C53.650034,11.1787072 52.9828727,11.0418251 52.2849193,11.0418251 L52.2849193,11.0418251 Z M67.9888703,9.24714829 C68.9536882,8.63878327 69.9903543,8.33460076 71.0988685,8.33460076 C71.878934,8.33460076 72.6179435,8.48162231 73.3158969,8.7756654 C74.0138502,9.06970849 74.6245595,9.47528517 75.1480245,9.99239544 C75.6714895,10.5095057 76.0820503,11.112801 76.3797069,11.8022814 C76.6773635,12.4917617 76.8261918,13.2217997 76.8261918,13.9923954 L76.8261918,22.661597 C76.8261918,23.026616 76.6927595,23.3409379 76.425895,23.6045627 C76.1590305,23.8681876 75.8408459,24 75.4713411,24 C75.0813084,24 74.7528597,23.8681876 74.4859952,23.6045627 C74.2191306,23.3409379 74.0856984,23.026616 74.0856984,22.661597 L74.0856984,13.9923954 C74.0856984,13.5868188 74.0087182,13.2065906 73.8547579,12.851711 C73.7007976,12.4968314 73.4852532,12.1825095 73.2081247,11.9087452 C72.9309961,11.634981 72.6128115,11.4220532 72.2535708,11.269962 C71.8943301,11.1178707 71.5094293,11.0418251 71.0988685,11.0418251 C70.6883077,11.0418251 70.2982749,11.1178707 69.9287702,11.269962 C69.5592654,11.4220532 69.2410808,11.634981 68.9742163,11.9087452 C68.7073518,12.1825095 68.4969393,12.4968314 68.342979,12.851711 C68.1890187,13.2065906 68.1120386,13.5868188 68.1120386,13.9923954 C68.1120386,14.0532319 68.0915105,14.1444867 68.0504545,14.2661597 L68.0504545,22.661597 C68.0504545,23.026616 67.9170222,23.3409379 67.6501577,23.6045627 C67.3832931,23.8681876 67.0651085,24 66.6956038,24 C66.305571,24 65.9771224,23.8681876 65.7102578,23.6045627 C65.4433933,23.3409379 65.309961,23.026616 65.309961,22.661597 L65.309961,9.4904943 C65.309961,9.10519645 65.4433933,8.78073511 65.7102578,8.51711027 C65.9771224,8.25348542 66.305571,8.121673 66.6956038,8.121673 C67.4346132,8.121673 67.8657021,8.49683143 67.9888703,9.24714829 L67.9888703,9.24714829 Z M92.8072714,24 C92.4172386,24 92.08879,23.8681876 91.8219254,23.6045627 C91.5550609,23.3409379 91.4216286,23.026616 91.4216286,22.661597 L91.4216286,14.6920152 C91.4216286,14.1850444 91.3241204,13.7135615 91.1291041,13.2775665 C90.9340877,12.8415716 90.6672231,12.4562738 90.3285105,12.121673 C89.9897978,11.7870722 89.599765,11.5234474 89.1584122,11.3307985 C88.7170593,11.1381496 88.2397824,11.0418251 87.7265813,11.0418251 C87.2339084,11.0418251 86.7617634,11.1381496 86.3101465,11.3307985 C85.8585296,11.5234474 85.4684969,11.7870722 85.1400482,12.121673 C84.8115996,12.4562738 84.5498671,12.8415716 84.3548507,13.2775665 C84.1598343,13.7135615 84.0623261,14.1850444 84.0623261,14.6920152 C84.0623261,14.7731305 84.0417981,14.8542459 84.000742,14.9353612 L84.000742,22.661597 C84.000742,23.026616 83.8673097,23.3409379 83.6004452,23.6045627 C83.3335807,23.8681876 83.015396,24 82.6458913,24 C82.2558585,24 81.9274099,23.8681876 81.6605454,23.6045627 C81.3936808,23.3409379 81.2602486,23.026616 81.2602486,22.661597 L81.2602486,1.33840304 C81.2602486,0.97338403 81.3936808,0.659062104 81.6605454,0.395437262 C81.9274099,0.131812421 82.2558585,5.32907052e-15 82.6458913,5.32907052e-15 C83.015396,5.32907052e-15 83.3335807,0.131812421 83.6004452,0.395437262 C83.8673097,0.659062104 84.000742,0.97338403 84.000742,1.33840304 L84.000742,9.52091255 C84.534471,9.1356147 85.1246522,8.84157161 85.7712855,8.63878327 C86.4179188,8.43599493 87.069684,8.33460076 87.7265813,8.33460076 C88.6092871,8.33460076 89.4406727,8.50190114 90.2207383,8.8365019 C91.0008038,9.17110266 91.6833612,9.62737643 92.2684103,10.2053232 C92.8534595,10.78327 93.3153404,11.4575412 93.6540531,12.2281369 C93.9927657,12.9987326 94.1621221,13.8200253 94.1621221,14.6920152 L94.1621221,22.661597 C94.1621221,23.026616 94.0286898,23.3409379 93.7618253,23.6045627 C93.4949607,23.8681876 93.1767761,24 92.8072714,24 L92.8072714,24 Z M111.744389,24 C111.354356,24 111.025907,23.8681876 110.759043,23.6045627 C110.492178,23.3409379 110.358746,23.026616 110.358746,22.661597 L110.358746,22.0836502 C109.640265,22.6920152 108.839671,23.1634981 107.956965,23.4980989 C107.07426,23.8326996 106.150498,24 105.18568,24 C104.097694,24 103.071292,23.792142 102.106474,23.3764259 C101.141656,22.9607098 100.300006,22.3979721 99.5815248,21.6882129 C98.8630433,20.9784537 98.2933902,20.1520913 97.8725654,19.2091255 C97.4517406,18.2661597 97.2413281,17.2572877 97.2413281,16.1825095 C97.2413281,15.1077313 97.4517406,14.0937896 97.8725654,13.1406844 C98.2933902,12.1875792 98.8630433,11.356147 99.5815248,10.6463878 C100.300006,9.93662864 101.141656,9.373891 102.106474,8.9581749 C103.071292,8.54245881 104.097694,8.33460076 105.18568,8.33460076 C106.150498,8.33460076 107.07426,8.50190114 107.956965,8.8365019 C108.839671,9.17110266 109.640265,9.64258555 110.358746,10.2509506 L110.358746,9.6730038 C110.358746,9.30798479 110.492178,8.99366286 110.759043,8.73003802 C111.025907,8.46641318 111.354356,8.33460076 111.744389,8.33460076 C112.113894,8.33460076 112.432078,8.46641318 112.698943,8.73003802 C112.965807,8.99366286 113.099239,9.30798479 113.099239,9.6730038 L113.099239,22.661597 C113.099239,23.026616 112.965807,23.3409379 112.698943,23.6045627 C112.432078,23.8681876 112.113894,24 111.744389,24 Z M105.18568,11.0418251 C104.467198,11.0418251 103.794905,11.1787072 103.1688,11.4524715 C102.542695,11.7262357 101.99357,12.0963245 101.521425,12.5627376 C101.04928,13.0291508 100.674643,13.5716096 100.397514,14.1901141 C100.120386,14.8086185 99.9818216,15.4727503 99.9818216,16.1825095 C99.9818216,16.8922687 100.120386,17.5564005 100.397514,18.1749049 C100.674643,18.7934094 101.04928,19.3358682 101.521425,19.8022814 C101.99357,20.2686946 102.542695,20.6337136 103.1688,20.8973384 C103.794905,21.1609632 104.467198,21.2927757 105.18568,21.2927757 C105.904161,21.2927757 106.576455,21.1609632 107.20256,20.8973384 C107.828665,20.6337136 108.37779,20.2686946 108.849935,19.8022814 C109.32208,19.3358682 109.691585,18.7934094 109.958449,18.1749049 C110.225314,17.5564005 110.358746,16.8922687 110.358746,16.1825095 C110.358746,15.4727503 110.225314,14.8086185 109.958449,14.1901141 C109.691585,13.5716096 109.32208,13.0291508 108.849935,12.5627376 C108.37779,12.0963245 107.828665,11.7262357 107.20256,11.4524715 C106.576455,11.1787072 105.904161,11.0418251 105.18568,11.0418251 L105.18568,11.0418251 Z M131.358932,24 C130.968899,24 130.64045,23.8681876 130.373586,23.6045627 C130.106721,23.3409379 129.973289,23.026616 129.973289,22.661597 L129.973289,22.0836502 C129.254807,22.6920152 128.454214,23.1634981 127.571508,23.4980989 C126.688802,23.8326996 125.76504,24 124.800223,24 C123.712236,24 122.685834,23.792142 121.721017,23.3764259 C120.756199,22.9607098 119.914549,22.3979721 119.196068,21.6882129 C118.477586,20.9784537 117.907933,20.1520913 117.487108,19.2091255 C117.066283,18.2661597 116.855871,17.2572877 116.855871,16.1825095 C116.855871,15.1077313 117.066283,14.0937896 117.487108,13.1406844 C117.907933,12.1875792 118.477586,11.356147 119.196068,10.6463878 C119.914549,9.93662864 120.756199,9.373891 121.721017,8.9581749 C122.685834,8.54245881 123.712236,8.33460076 124.800223,8.33460076 C125.76504,8.33460076 126.688802,8.50190114 127.571508,8.8365019 C128.454214,9.17110266 129.254807,9.65272497 129.973289,10.2813688 L129.973289,1.33840304 C129.973289,0.97338403 130.106721,0.659062104 130.373586,0.395437262 C130.64045,0.131812421 130.968899,0 131.358932,0 C131.728436,0 132.046621,0.131812421 132.313485,0.395437262 C132.58035,0.659062104 132.713782,0.97338403 132.713782,1.33840304 L132.713782,22.661597 C132.713782,23.026616 132.58035,23.3409379 132.313485,23.6045627 C132.046621,23.8681876 131.728436,24 131.358932,24 Z M124.800223,11.0418251 C124.081741,11.0418251 123.409448,11.1787072 122.783343,11.4524715 C122.157237,11.7262357 121.608112,12.0963245 121.135967,12.5627376 C120.663822,13.0291508 120.289186,13.5716096 120.012057,14.1901141 C119.734929,14.8086185 119.596364,15.4727503 119.596364,16.1825095 C119.596364,16.8922687 119.734929,17.5564005 120.012057,18.1749049 C120.289186,18.7934094 120.663822,19.3307985 121.135967,19.7870722 C121.608112,20.243346 122.157237,20.608365 122.783343,20.8821293 C123.409448,21.1558935 124.081741,21.2927757 124.800223,21.2927757 C125.498176,21.2927757 126.165337,21.1558935 126.801707,20.8821293 C127.438076,20.608365 127.987201,20.243346 128.449082,19.7870722 C128.910963,19.3307985 129.280467,18.7934094 129.557596,18.1749049 C129.834725,17.5564005 129.973289,16.8922687 129.973289,16.1825095 C129.973289,15.4727503 129.834725,14.8086185 129.557596,14.1901141 C129.280467,13.5716096 128.910963,13.0291508 128.449082,12.5627376 C127.987201,12.0963245 127.438076,11.7262357 126.801707,11.4524715 C126.165337,11.1787072 125.498176,11.0418251 124.800223,11.0418251 L124.800223,11.0418251 Z M150.973474,24 C150.583442,24 150.254993,23.8681876 149.988128,23.6045627 C149.721264,23.3409379 149.587832,23.026616 149.587832,22.661597 L149.587832,22.0836502 C148.86935,22.6920152 148.068757,23.1634981 147.186051,23.4980989 C146.303345,23.8326996 145.379583,24 144.414765,24 C143.326779,24 142.300377,23.792142 141.335559,23.3764259 C140.370741,22.9607098 139.529092,22.3979721 138.81061,21.6882129 C138.092129,20.9784537 137.522476,20.1520913 137.101651,19.2091255 C136.680826,18.2661597 136.470414,17.2572877 136.470414,16.1825095 C136.470414,15.1077313 136.680826,14.0937896 137.101651,13.1406844 C137.522476,12.1875792 138.092129,11.356147 138.81061,10.6463878 C139.529092,9.93662864 140.370741,9.373891 141.335559,8.9581749 C142.300377,8.54245881 143.326779,8.33460076 144.414765,8.33460076 C145.379583,8.33460076 146.303345,8.50190114 147.186051,8.8365019 C148.068757,9.17110266 148.86935,9.64258555 149.587832,10.2509506 L149.587832,9.6730038 C149.587832,9.30798479 149.721264,8.99366286 149.988128,8.73003802 C150.254993,8.46641318 150.583442,8.33460076 150.973474,8.33460076 C151.342979,8.33460076 151.661164,8.46641318 151.928028,8.73003802 C152.194893,8.99366286 152.328325,9.30798479 152.328325,9.6730038 L152.328325,22.661597 C152.328325,23.026616 152.194893,23.3409379 151.928028,23.6045627 C151.661164,23.8681876 151.342979,24 150.973474,24 Z M144.414765,11.0418251 C143.696284,11.0418251 143.023991,11.1787072 142.397885,11.4524715 C141.77178,11.7262357 141.222655,12.0963245 140.75051,12.5627376 C140.278365,13.0291508 139.903728,13.5716096 139.6266,14.1901141 C139.349471,14.8086185 139.210907,15.4727503 139.210907,16.1825095 C139.210907,16.8922687 139.349471,17.5564005 139.6266,18.1749049 C139.903728,18.7934094 140.278365,19.3358682 140.75051,19.8022814 C141.222655,20.2686946 141.77178,20.6337136 142.397885,20.8973384 C143.023991,21.1609632 143.696284,21.2927757 144.414765,21.2927757 C145.133247,21.2927757 145.80554,21.1609632 146.431645,20.8973384 C147.057751,20.6337136 147.606876,20.2686946 148.079021,19.8022814 C148.551166,19.3358682 148.92067,18.7934094 149.187535,18.1749049 C149.454399,17.5564005 149.587832,16.8922687 149.587832,16.1825095 C149.587832,15.4727503 149.454399,14.8086185 149.187535,14.1901141 C148.92067,13.5716096 148.551166,13.0291508 148.079021,12.5627376 C147.606876,12.0963245 147.057751,11.7262357 146.431645,11.4524715 C145.80554,11.1787072 145.133247,11.0418251 144.414765,11.0418251 L144.414765,11.0418251 Z M164.614357,11.0418251 L162.1202,11.0418251 L162.1202,22.661597 C162.1202,23.026616 161.986768,23.3409379 161.719904,23.6045627 C161.453039,23.8681876 161.12459,24 160.734558,24 C160.365053,24 160.046868,23.8681876 159.780004,23.6045627 C159.513139,23.3409379 159.379707,23.026616 159.379707,22.661597 L159.379707,11.0418251 L156.854758,11.0418251 C156.485253,11.0418251 156.167069,10.9100127 155.900204,10.6463878 C155.63334,10.382763 155.499907,10.0684411 155.499907,9.70342205 C155.499907,9.31812421 155.63334,8.99366286 155.900204,8.73003802 C156.167069,8.46641318 156.485253,8.33460076 156.854758,8.33460076 L159.379707,8.33460076 L159.379707,3.86311787 C159.379707,3.47782003 159.513139,3.15842839 159.780004,2.90494297 C160.046868,2.65145754 160.365053,2.52471483 160.734558,2.52471483 C161.12459,2.52471483 161.453039,2.65145754 161.719904,2.90494297 C161.986768,3.15842839 162.1202,3.47782003 162.1202,3.86311787 L162.1202,8.33460076 L164.614357,8.33460076 C165.00439,8.33460076 165.332839,8.46641318 165.599703,8.73003802 C165.866568,8.99366286 166,9.31812421 166,9.70342205 C166,10.0684411 165.866568,10.382763 165.599703,10.6463878 C165.332839,10.9100127 165.00439,11.0418251 164.614357,11.0418251 Z" id="Shape"></path>
            </g>
            <g id="Group" transform="translate(21.000000, 17.000000)" fill="#FFFFFF">
                <path d="M14,0 C6.26758,0 0,6.28920313 0,14.0471133 C0,24.7153438 14,34 14,34 C14,34 28,24.7153437 28,14.0471133 C28,6.28920313 21.73242,0 14,0 Z M14,24.964832 C7.99053576,24.964832 3.11942817,20.077332 3.11942817,14.0471133 C3.11942817,8.01742578 7.99060194,3.12939453 14,3.12939453 C20.0093981,3.12939453 24.8816969,8.01742578 24.8816969,14.0471133 C24.8816969,20.0773984 20.0094642,24.964832 14,24.964832 Z" id="Shape"></path>
                <polygon id="Shape" points="18.3824746 8.16245703 17.0873953 8.16245703 17.0873953 10.0727656 13.8471822 6.82211328 7.37555842 13.315582 8.29107515 14.2341797 13.8471822 8.659375 19.4088487 14.2397578 20.3243655 13.3210938 18.3824746 11.3720703"></polygon>
                <polygon id="Shape" points="9.31804494 14.6990234 9.31804494 19.8554687 12.5621629 19.8554687 12.5621629 16.6070742 15.1388861 16.6070742 15.1388861 19.8554687 18.3824746 19.8554687 18.3824746 14.6990234 13.8504914 10.1103516"></polygon>
            </g>
        </g>
    </g>
</svg>