<?xml version="1.0" encoding="UTF-8"?>
<svg width="254px" height="151px" viewBox="0 0 254 151" version="1.1" xmlns="http://www.w3.org/2000/svg" xmlns:xlink="http://www.w3.org/1999/xlink">
    <title>printme</title>
    <g id="printme" stroke="none" stroke-width="1" fill="none" fill-rule="evenodd">
        <g id="Group" transform="translate(68.000000, 21.000000)" fill="#8C98A4" fill-rule="nonzero">
            <g id="Group" transform="translate(27.000000, 0.000000)">
                <path d="M9.4351118,47.8060556 L11.8249451,47.8060556 L11.8249451,59.7581111 C11.8256673,62.6535 14.1714451,64.9992778 17.066834,65 L48.5181671,65 C51.413556,64.9992778 53.7593338,62.6535 53.760056,59.7581111 L53.760056,47.8060556 L55.5634449,47.8060556 C60.7612782,47.8024444 64.9963893,43.5673333 65.0000004,38.3709444 L65.0000004,18.8709444 C64.9963893,13.6745556 60.7612782,9.43944444 55.5648893,9.43511111 L53.7615004,9.43511111 L53.7615004,5.24188889 C53.7607782,2.3465 51.4150004,0.000722222222 48.5196116,0 L17.0675562,0 C14.1721673,0.000722222222 11.8263896,2.3465 11.8256673,5.24188889 L11.8256673,9.43511111 L9.43583402,9.43511111 C6.82211182,9.43438889 4.45538961,10.4982222 2.75383406,12.207 C1.05083407,13.9150556 -0.000721479031,16.2788889 3.71402123e-07,18.8709444 L3.71402123e-07,38.3709444 C-0.000721479031,40.963 1.05083407,43.3268333 2.75383406,45.0341667 C4.45466738,46.7429444 6.82138959,47.8075 9.4351118,47.8060556 Z M51.6641671,59.7581111 C51.6634449,60.6298333 51.3138893,61.4098333 50.7426116,61.9818333 C50.1698893,62.5523889 49.3906116,62.9026667 48.5188894,62.9033889 L17.0675562,62.9033889 C16.195834,62.9026667 15.415834,62.5531111 14.843834,61.9818333 C14.2732784,61.4091111 13.9230007,60.6298333 13.9222784,59.7581111 L13.9222784,38.7905556 C13.9230007,37.9188333 14.2725562,37.1388333 14.843834,36.5668333 C15.4165562,35.9962778 16.195834,35.646 17.0675562,35.6452778 L48.5188894,35.6452778 C49.3906116,35.646 50.1706116,35.9955556 50.7426116,36.5668333 C51.3131671,37.1395556 51.6634449,37.9188333 51.6641671,38.7905556 L51.6641671,59.7581111 Z M13.9222784,5.24188889 C13.9230007,4.37016667 14.2725562,3.59016667 14.843834,3.01816667 C15.4165562,2.44761111 16.195834,2.09733333 17.0675562,2.09661111 L48.5188894,2.09661111 C49.3906116,2.09733333 50.1706116,2.44688889 50.7426116,3.01816667 C51.3131671,3.59088889 51.6634449,4.37016667 51.6641671,5.24188889 L51.6641671,9.43077778 L13.9222784,9.43077778 L13.9222784,5.24188889 Z M2.09661184,18.8709444 C2.09733406,16.8501667 2.91200073,15.0207778 4.23872294,13.6875556 C5.56761182,12.3557778 7.39411181,11.5331667 9.4351118,11.5317222 L12.8736118,11.5317222 L52.7121116,11.5317222 L55.5634449,11.5317222 C57.5806115,11.5317222 59.4107226,12.3550556 60.7453893,13.6882778 C62.0786115,15.0229444 62.9019448,16.8530556 62.9019448,18.8702222 L62.9019448,38.3702222 C62.9019448,40.3873889 62.0786115,42.2175 60.7453893,43.5521667 C59.4107226,44.8853889 57.5806115,45.7087222 55.5634449,45.7087222 L53.760056,45.7087222 L53.760056,38.7905556 C53.7593338,35.8951667 51.413556,33.5493889 48.5181671,33.5486667 L17.0675562,33.5486667 C14.1721673,33.5493889 11.8263896,35.8951667 11.8256673,38.7905556 L11.8256673,45.7101667 L9.43583402,45.7101667 C7.39483403,45.7094444 5.56833404,44.8861111 4.23944516,43.5543333 C2.91272295,42.2211111 2.09733406,40.3917222 2.09733406,38.3709444 L2.09733406,18.8709444 L2.09661184,18.8709444 Z" id="Shape"></path>
                <path d="M42.2290561,43.5081111 L23.3581117,43.5081111 C22.7788895,43.5081111 22.3094451,43.9775556 22.3094451,44.5567778 C22.3094451,45.136 22.7788895,45.6054444 23.3581117,45.6054444 L42.2290561,45.6054444 C42.8082783,45.6054444 43.2777227,45.136 43.2777227,44.5567778 C43.2770005,43.9775556 42.8075561,43.5081111 42.2290561,43.5081111 Z" id="Path"></path>
                <path d="M33.0452783,52.9439444 L23.3581117,52.9439444 C22.7788895,52.9439444 22.3094451,53.4133889 22.3094451,53.9926111 C22.3094451,54.5718333 22.7788895,55.0412778 23.3581117,55.0412778 L33.0460006,55.0412778 C33.6252228,55.0412778 34.0946672,54.5718333 34.0946672,53.9926111 C34.093945,53.4126667 33.6245006,52.9439444 33.0452783,52.9439444 Z" id="Path"></path>
                <ellipse id="Oval" cx="53.4617782" cy="20.7003333" rx="1.9471111" ry="1.94711111"></ellipse>
                <ellipse id="Oval" cx="44.4419449" cy="20.7003333" rx="1.9471111" ry="1.94711111"></ellipse>
            </g>
            <g id="SvgjsG2858" transform="translate(-0.000000, 89.000000)">
                <path d="M3.14893617,5.79281184 C3.41843972,5.42635659 3.88297872,5.09866103 4.54255319,4.80972516 C5.20212766,4.52078929 5.92198582,4.37632135 6.70212766,4.37632135 C7.90780142,4.37632135 8.95390071,4.64411557 9.84042553,5.17970402 C10.7269504,5.71529246 11.4042553,6.44467935 11.8723404,7.36786469 C12.3404255,8.29105004 12.5744681,9.31642001 12.5744681,10.4439746 C12.5744681,11.5715292 12.3404255,12.5968992 11.8723404,13.5200846 C11.4042553,14.4432699 10.7269504,15.1726568 9.84042553,15.7082452 C8.95390071,16.2438337 7.90780142,16.5116279 6.70212766,16.5116279 C5.89361702,16.5116279 5.18085106,16.3742072 4.56382979,16.0993658 C3.94680851,15.8245243 3.4751773,15.4756871 3.14893617,15.0528541 L3.14893617,20 L3.77948264e-15,20 L3.77948264e-15,4.63002114 L3.14893617,4.63002114 L3.14893617,5.79281184 L3.14893617,5.79281184 Z M3.89361702,12.8224101 C4.4751773,13.435518 5.25531915,13.7420719 6.23404255,13.7420719 C7.22695035,13.7420719 8.0106383,13.435518 8.58510638,12.8224101 C9.15957447,12.2093023 9.44680851,11.4164905 9.44680851,10.4439746 C9.44680851,9.49964764 9.15248227,8.71740662 8.56382979,8.09725159 C7.9751773,7.47709655 7.19858156,7.16701903 6.23404255,7.16701903 C5.24113475,7.16701903 4.45744681,7.45947851 3.88297872,8.04439746 C3.30851064,8.62931642 3.0212766,9.42917548 3.0212766,10.4439746 C3.0212766,11.4164905 3.31205674,12.2093023 3.89361702,12.8224101 Z M20.7446809,7.66384778 C20.1347518,7.81183932 19.5744681,8.16067653 19.0638298,8.71035941 C18.5531915,9.26004228 18.2978723,10.0634249 18.2978723,11.1205074 L18.2978723,16.2579281 L15.1276596,16.2579281 L15.1276596,4.63002114 L18.2978723,4.63002114 L18.2978723,6.17336152 C18.822695,5.48273432 19.464539,5.01409443 20.2234043,4.76744186 C20.9822695,4.52078929 21.6737589,4.40451022 22.2978723,4.41860465 L22.2978723,7.50528541 C21.8723404,7.46300211 21.3546099,7.51585624 20.7446809,7.66384778 L20.7446809,7.66384778 Z M27.1702128,2.90697674 C26.8297872,3.23819591 26.4184397,3.4038055 25.9361702,3.4038055 C25.4397163,3.4038055 25.0177305,3.23819591 24.6702128,2.90697674 C24.322695,2.57575758 24.1489362,2.17054264 24.1489362,1.69133192 C24.1489362,1.22621564 24.322695,0.828047921 24.6702128,0.496828753 C25.0177305,0.165609584 25.4397163,0 25.9361702,0 C26.4184397,0 26.8297872,0.165609584 27.1702128,0.496828753 C27.5106383,0.828047921 27.6808511,1.22621564 27.6808511,1.69133192 C27.6808511,2.17054264 27.5106383,2.57575758 27.1702128,2.90697674 Z M24.3404255,4.65116279 L27.5319149,4.65116279 L27.5319149,16.2579281 L24.3404255,16.2579281 L24.3404255,4.65116279 Z M40.4787234,5.70824524 C41.2092199,6.56800564 41.5744681,7.79422128 41.5744681,9.38689218 L41.5744681,16.2579281 L38.3191489,16.2579281 L38.3191489,9.38689218 C38.3191489,7.82241015 37.5673759,7.04016913 36.0638298,7.04016913 C35.4822695,7.04016913 34.9574468,7.26920366 34.4893617,7.72727273 C34.0212766,8.18534179 33.8014184,8.97815363 33.8297872,10.1057082 L33.8297872,16.2579281 L30.6595745,16.2579281 L30.6595745,4.63002114 L33.8297872,4.63002114 L33.8297872,5.66596195 C34.212766,5.28541226 34.6950355,4.98238196 35.2765957,4.75687104 C35.858156,4.53136011 36.4184397,4.41860465 36.9574468,4.41860465 C38.5744681,4.41860465 39.748227,4.84848485 40.4787234,5.70824524 Z M48.6170213,12.1141649 C48.6170213,12.60747 48.7021277,13.0197322 48.8723404,13.3509514 C49.0425532,13.6821705 49.4397163,13.8477801 50.0638298,13.8477801 C50.3475177,13.8477801 50.6170213,13.8336857 50.8723404,13.8054968 L50.8723404,16.4693446 C50.3617021,16.5257223 49.8865248,16.5539112 49.4468085,16.5539112 C48.5390071,16.5539112 47.8049645,16.4799154 47.2446809,16.3319239 C46.6843972,16.1839323 46.248227,15.8985201 45.9361702,15.4756871 C45.6241135,15.0528541 45.4680851,14.4467935 45.4680851,13.6575053 L45.4680851,7.20930233 L44.0425532,7.20930233 L44.0425532,4.4397463 L45.4680851,4.4397463 L45.4680851,1.33192389 L48.6170213,1.33192389 L48.6170213,4.4397463 L50.9574468,4.4397463 L50.9574468,7.20930233 L48.6170213,7.20930233 L48.6170213,12.1141649 L48.6170213,12.1141649 Z M70.8617021,5.72938689 C71.6631206,6.60324172 72.0638298,7.82241015 72.0638298,9.38689218 L72.0638298,16.2579281 L68.8510638,16.2579281 L68.8510638,9.38689218 C68.8510638,8.55532065 68.641844,7.95630726 68.2234043,7.58985201 C67.8049645,7.22339676 67.2553191,7.04016913 66.5744681,7.04016913 C66.0070922,7.04016913 65.4964539,7.25158562 65.0425532,7.6744186 C64.5886525,8.09725159 64.3546099,8.80197322 64.3404255,9.78858351 L64.3404255,16.2579281 L61.1276596,16.2579281 L61.1276596,9.38689218 C61.1276596,8.55532065 60.9184397,7.95630726 60.5,7.58985201 C60.0815603,7.22339676 59.5390071,7.04016913 58.8723404,7.04016913 C58.2624113,7.04016913 57.7340426,7.26568006 57.287234,7.7167019 C56.8404255,8.16772375 56.6170213,8.9640592 56.6170213,10.1057082 L56.5957447,16.2579281 L53.4255319,16.2579281 L53.4255319,4.63002114 L56.5957447,4.63002114 L56.5957447,5.68710359 C57.0070922,5.32064834 57.5035461,5.01761804 58.0851064,4.77801268 C58.6666667,4.53840733 59.1985816,4.41860465 59.6808511,4.41860465 C61.3262411,4.41860465 62.5815603,4.94714588 63.4468085,6.00422833 C63.8865248,5.51092319 64.4326241,5.12332629 65.0851064,4.84143763 C65.7375887,4.55954898 66.4468085,4.41860465 67.212766,4.41860465 C68.8439716,4.41860465 70.0602837,4.85553206 70.8617021,5.72938689 Z M78.3510638,15.9830867 C77.3794326,15.602537 76.5460993,14.9577167 75.8510638,14.0486258 C75.1560284,13.1395349 74.8085106,11.9520789 74.8085106,10.4862579 C74.8085106,9.02043693 75.1595745,7.83650458 75.8617021,6.93446089 C76.5638298,6.0324172 77.4042553,5.39112051 78.3829787,5.01057082 C79.3617021,4.63002114 80.2907801,4.4397463 81.1702128,4.4397463 C82.1914894,4.4397463 83.1631206,4.66525722 84.0851064,5.11627907 C85.0070922,5.56730092 85.7624113,6.22973925 86.3510638,7.10359408 C86.9397163,7.97744891 87.248227,9.01338971 87.2765957,10.2114165 C87.2765957,10.5778717 87.2695035,10.8949965 87.2553191,11.1627907 C87.2411348,11.4305849 87.2269504,11.5997181 87.212766,11.6701903 L77.9787234,11.6701903 C78.1489362,12.4876674 78.5744681,13.0443975 79.2553191,13.3403805 C79.9361702,13.6363636 80.5744681,13.7843552 81.1702128,13.7843552 C81.9361702,13.7843552 82.5460993,13.6469345 83,13.372093 C83.4539007,13.0972516 83.8439716,12.7836505 84.1702128,12.4312896 L86.6382979,13.8477801 C85.3049645,15.6518675 83.4822695,16.5539112 81.1702128,16.5539112 C80.2624113,16.5539112 79.322695,16.3636364 78.3510638,15.9830867 L78.3510638,15.9830867 Z M79,7.85412262 C78.4468085,8.28400282 78.1347518,8.80902044 78.0638298,9.42917548 L83.9148936,9.42917548 C83.8723404,9.06272023 83.7304965,8.71035941 83.4893617,8.37209302 C83.248227,8.03382664 82.9255319,7.75546159 82.5212766,7.53699789 C82.1170213,7.31853418 81.6595745,7.20930233 81.1489362,7.20930233 C80.2695035,7.20930233 79.5531915,7.42424242 79,7.85412262 L79,7.85412262 Z M91.8829787,15.9302326 C91.535461,16.2614517 91.1205674,16.4270613 90.6382979,16.4270613 C90.1560284,16.4270613 89.7446809,16.2614517 89.4042553,15.9302326 C89.0638298,15.5990134 88.893617,15.2008457 88.893617,14.7357294 C88.893617,14.2847075 89.0638298,13.8900634 89.4042553,13.551797 C89.7446809,13.2135307 90.1560284,13.0443975 90.6382979,13.0443975 C91.1205674,13.0443975 91.535461,13.2135307 91.8829787,13.551797 C92.2304965,13.8900634 92.4042553,14.2847075 92.4042553,14.7357294 C92.4042553,15.2008457 92.2304965,15.5990134 91.8829787,15.9302326 Z M92.9148936,4.67230444 L96.4468085,4.67230444 L99.1702128,10.359408 L101.893617,4.67230444 L105.446809,4.67230444 L99.1702128,16.7653277 L92.9148936,4.67230444 Z M116.904255,5.70824524 C117.634752,6.56800564 118,7.79422128 118,9.38689218 L118,16.2579281 L114.744681,16.2579281 L114.744681,9.38689218 C114.744681,7.82241015 113.992908,7.04016913 112.489362,7.04016913 C111.907801,7.04016913 111.382979,7.26920366 110.914894,7.72727273 C110.446809,8.18534179 110.22695,8.97815363 110.255319,10.1057082 L110.255319,16.2579281 L107.085106,16.2579281 L107.085106,4.63002114 L110.255319,4.63002114 L110.255319,5.66596195 C110.638298,5.28541226 111.120567,4.98238196 111.702128,4.75687104 C112.283688,4.53136011 112.843972,4.41860465 113.382979,4.41860465 C115,4.41860465 116.173759,4.84848485 116.904255,5.70824524 L116.904255,5.70824524 Z" id="Shape"></path>
            </g>
        </g>
    </g>
</svg>