<?xml version="1.0" encoding="UTF-8"?>
<svg width="254px" height="151px" viewBox="0 0 254 151" version="1.1" xmlns="http://www.w3.org/2000/svg" xmlns:xlink="http://www.w3.org/1999/xlink">
    <title>udrivevn</title>
    <g id="udrivevn" stroke="none" stroke-width="1" fill="none" fill-rule="evenodd">
        <g id="udrive-logo" transform="translate(12.000000, 53.000000)" fill="#8C98A4" fill-rule="nonzero">
            <g id="Shape">
                <path d="M38.83616,29.8104304 C38.434,29.7563022 37.884,29.7216956 37.26448,29.6835397 C35.8556,29.597467 33.9284,29.4803372 32.94192,29.002057 C31.74248,28.4208446 30.81936,27.2247005 29.84344,25.958456 C28.97136,24.8279756 28.06936,23.658452 26.89456,22.8554027 C23.63768,20.6290485 15.16856,20.9325213 11.88528,22.8181342 C10.33472,23.7081434 10.00736,25.2698746 9.74424,26.5245836 C9.47936,27.7908281 9.27344,28.5867785 8.41896,29.0011697 C7.6868,29.3552212 6.43104,29.5167184 5.42256,29.6462711 C4.9852,29.7012867 4.57952,29.7545275 4.24512,29.8148671 C1.50744,30.3100069 0,32.1956197 0,35.1265276 C0,38.3609083 1.72656,40.4506111 4.4,40.4506111 L7.12888,40.4506111 C7.53808,42.4728754 9.3148,44 11.44,44 C13.5652,44 15.34192,42.4728754 15.75112,40.4506111 L28.24976,40.4506111 C28.65808,42.4728754 30.43568,44 32.56,44 C34.68432,44 36.4628,42.4728754 36.87024,40.4506111 L38.72,40.4506111 C41.63192,40.4506111 44,38.0627596 44,35.1265276 C44,32.403259 41.87656,30.2168354 38.83616,29.8104304 Z M11.44,42.2253055 C9.98448,42.2253055 8.8,41.0309362 8.8,39.5632638 C8.8,38.0955915 9.98448,36.9012221 11.44,36.9012221 C12.89552,36.9012221 14.08,38.0955915 14.08,39.5632638 C14.08,41.0309362 12.89552,42.2253055 11.44,42.2253055 Z M32.56,42.2253055 C31.10448,42.2253055 29.92,41.0309362 29.92,39.5632638 C29.92,38.0955915 31.10448,36.9012221 32.56,36.9012221 C34.01552,36.9012221 35.2,38.0955915 35.2,39.5632638 C35.2,41.0309362 34.01552,42.2253055 32.56,42.2253055 Z M38.72,38.6759166 L36.87024,38.6759166 C36.46192,36.6536522 34.68432,35.1265276 32.56,35.1265276 C30.43568,35.1265276 28.6572,36.6536522 28.24976,38.6759166 L15.75112,38.6759166 C15.34192,36.6536522 13.5652,35.1265276 11.44,35.1265276 C9.3148,35.1265276 7.53808,36.6536522 7.12888,38.6759166 L4.4,38.6759166 C2.01696,38.6759166 1.76,36.1940064 1.76,35.1265276 C1.76,33.039487 2.64792,31.9072319 4.55576,31.5629412 C4.8664,31.5070383 5.2404,31.4591215 5.64432,31.4076554 C6.83848,31.2541443 8.1928,31.0811116 9.18192,30.6019441 C10.86008,29.7882467 11.19712,28.1821482 11.46728,26.8928327 C11.73128,25.6301375 11.93544,24.8332997 12.75648,24.361231 C15.48448,22.7959505 23.2716,22.5217602 25.9072,24.3248498 C26.85144,24.9708385 27.63024,25.978865 28.4548,27.0472311 C29.51344,28.4199572 30.60816,29.8388255 32.18072,30.6010567 C33.47872,31.2292986 35.51944,31.3544146 37.15888,31.4537974 C37.72912,31.488404 38.23512,31.5185738 38.6056,31.5682652 C40.414,31.8122857 42.24,33.0048804 42.24,35.1265276 C42.24,37.0840156 40.66128,38.6759166 38.72,38.6759166 Z"></path>
                <path d="M25.52,15.9722502 C26.72648,15.9722502 27.81944,15.4788852 28.61584,14.6829347 L32.00912,16.9643044 C31.80056,17.4807405 31.68,18.0424313 31.68,18.6342919 C31.68,21.0807083 33.65384,23.0710281 36.08,23.0710281 C38.50616,23.0710281 40.48,21.0807083 40.48,18.6342919 C40.48,16.1878756 38.50616,14.1975558 36.08,14.1975558 C34.87352,14.1975558 33.78056,14.6909208 32.98416,15.4868713 L29.59088,13.2055016 C29.79944,12.6890655 29.92,12.1273747 29.92,11.5355141 C29.92,10.9436535 29.79944,10.3819627 29.59088,9.86552656 L32.98416,7.58504417 C33.78056,8.38010729 34.87352,8.87347235 36.08,8.87347235 C38.50616,8.87347235 40.48,6.8831525 40.48,4.43673618 C40.48,1.99031985 38.50616,0 36.08,0 C33.65384,0 31.68,1.99031985 31.68,4.43673618 C31.68,5.02859678 31.80056,5.59028758 32.00912,6.10672367 L28.61584,8.38720607 C27.81944,7.59214294 26.72648,7.09877788 25.52,7.09877788 C23.09384,7.09877788 21.12,9.08909773 21.12,11.5355141 C21.12,13.9819304 23.09384,15.9722502 25.52,15.9722502 Z M36.08,15.9722502 C37.53552,15.9722502 38.72,17.1666196 38.72,18.6342919 C38.72,20.1019643 37.53552,21.2963336 36.08,21.2963336 C34.62448,21.2963336 33.44,20.1019643 33.44,18.6342919 C33.44,17.1666196 34.62448,15.9722502 36.08,15.9722502 Z M36.08,1.77469447 C37.53552,1.77469447 38.72,2.96906385 38.72,4.43673618 C38.72,5.9044085 37.53552,7.09877788 36.08,7.09877788 C34.62448,7.09877788 33.44,5.9044085 33.44,4.43673618 C33.44,2.96906385 34.62448,1.77469447 36.08,1.77469447 Z M25.52,8.87347235 C26.97552,8.87347235 28.16,10.0678417 28.16,11.5355141 C28.16,13.0031864 26.97552,14.1975558 25.52,14.1975558 C24.06448,14.1975558 22.88,13.0031864 22.88,11.5355141 C22.88,10.0678417 24.06448,8.87347235 25.52,8.87347235 Z"></path>
            </g>
            <g id="SvgjsG1988" transform="translate(53.000000, 4.000000)">
                <path d="M18.3438167,27.9328057 C18.3438167,29.167764 18.1022315,30.3295998 17.619061,31.4183129 C17.1358905,32.5070261 16.4861095,33.457619 15.669718,34.2700916 C14.8533266,35.0825641 13.8869856,35.7244174 12.7706953,36.1956514 C11.6544049,36.6668855 10.4631398,36.9025026 9.19689993,36.9025026 C7.93066009,36.9025026 6.73939493,36.6668855 5.62310458,36.1956514 C4.50681418,35.7244174 3.53214272,35.0825641 2.69909019,34.2700916 C1.86603766,33.457619 1.20792616,32.5070261 0.724755696,31.4183129 C0.241585234,30.3295998 0,29.167764 0,27.9328057 L0,15.0144925 C0,14.6245056 0.141618927,14.2832672 0.424856786,13.990777 C0.708094646,13.6982869 1.06630724,13.5520419 1.49949455,13.5520419 C1.89935977,13.5520419 2.2409113,13.6982869 2.52414916,13.990777 C2.80738702,14.2832672 2.94900595,14.6245056 2.94900595,15.0144925 L2.94900595,27.9328057 C2.94900595,28.7777772 3.11561646,29.5658755 3.44883747,30.2971008 C3.78205848,31.0283261 4.23190684,31.6701794 4.79838256,32.2226607 C5.36485826,32.7751421 6.02296976,33.2138772 6.77271708,33.5388662 C7.52246434,33.8638553 8.33052527,34.0263498 9.19689993,34.0263498 C10.0632745,34.0263498 10.8713355,33.8638553 11.6210828,33.5388662 C12.37083,33.2138772 13.0289415,32.7751421 13.5954173,32.2226607 C14.161893,31.6701794 14.6117414,31.0283261 14.9449624,30.2971008 C15.2781834,29.5658755 15.4447939,28.7777772 15.4447939,27.9328057 L15.4447939,15.0144925 C15.4447939,14.6245056 15.5864128,14.2832672 15.8696507,13.990777 C16.1528885,13.6982869 16.49444,13.5520419 16.8943053,13.5520419 C17.2941705,13.5520419 17.635722,13.6982869 17.9189599,13.990777 C18.2021977,14.2832672 18.3438167,14.6245056 18.3438167,15.0144925 L18.3438167,27.9328057 Z M47.1291137,35.5862971 C47.1291137,35.9762838 46.9874948,36.3093976 46.704257,36.5856383 C46.4210191,36.8618789 46.0794676,37 45.6796024,37 C45.2797371,37 44.9298551,36.8618789 44.6299561,36.5856383 C44.3300573,36.3093976 44.1801078,35.9762838 44.1801078,35.5862971 L44.1801078,32.8563893 C43.0138343,34.1888443 41.6392976,35.2125597 40.0564978,35.9275355 C38.473698,36.6425113 36.7992624,37 35.033191,37 C33.367086,37 31.7926167,36.6912597 30.3097832,36.0737806 C28.8269497,35.4563014 27.5357183,34.61133 26.436089,33.5388662 C25.3364596,32.4664025 24.470085,31.2151948 23.836965,29.7852431 C23.2038451,28.3552915 22.8872852,26.8278431 22.8872852,25.202898 C22.8872852,23.577953 23.2038451,22.0423799 23.836965,20.5961788 C24.470085,19.1499777 25.3364596,17.8906452 26.436089,16.8181815 C27.5357183,15.7457177 28.8269497,14.9007463 30.3097832,14.2832672 C31.7926167,13.665788 33.367086,13.3570485 35.033191,13.3570485 C36.7992624,13.3570485 38.473698,13.7145364 40.0564978,14.4295122 C41.6392976,15.144488 43.0138343,16.1682035 44.1801078,17.5006584 L44.1801078,1.41370222 C44.1801078,1.0237154 44.3300573,0.690601658 44.6299561,0.414360996 C44.9298551,0.138120334 45.2797371,0 45.6796024,0 C46.0794676,0 46.4210191,0.138120334 46.704257,0.414360996 C46.9874948,0.690601658 47.1291137,1.0237154 47.1291137,1.41370222 L47.1291137,35.5862971 Z M44.1801078,25.202898 C44.1801078,23.9679398 43.9385225,22.8061041 43.4553521,21.7173909 C42.9721816,20.6286777 42.3224007,19.6780848 41.5060092,18.8656123 C40.6896177,18.0531397 39.7232768,17.4112864 38.6069864,16.9400523 C37.490696,16.4688183 36.2994309,16.2332013 35.033191,16.2332013 C33.7669512,16.2332013 32.5756861,16.4688183 31.4593957,16.9400523 C30.3431053,17.4112864 29.3684338,18.0531397 28.5353813,18.8656123 C27.7023288,19.6780848 27.0442173,20.6286777 26.5610468,21.7173909 C26.0778764,22.8061041 25.8362911,23.9679398 25.8362911,25.202898 C25.8362911,26.4378563 26.0778764,27.599692 26.5610468,28.6884052 C27.0442173,29.7771184 27.7023288,30.7195865 28.5353813,31.5158096 C29.3684338,32.3120328 30.3431053,32.9457613 31.4593957,33.4169954 C32.5756861,33.8882294 33.7669512,34.1238465 35.033191,34.1238465 C36.2994309,34.1238465 37.490696,33.8882294 38.6069864,33.4169954 C39.7232768,32.9457613 40.6896177,32.3120328 41.5060092,31.5158096 C42.3224007,30.7195865 42.9721816,29.7771184 43.4553521,28.6884052 C43.9385225,27.599692 44.1801078,26.4378563 44.1801078,25.202898 Z M57.8704931,35.5862971 C57.8704931,35.8787872 57.7538657,36.1712773 57.520611,36.4637674 C57.2540342,36.8212553 56.8874911,36.9999992 56.4209816,36.9999992 C55.9877943,36.9999992 55.6295817,36.8618789 55.3463439,36.5856383 C55.0631061,36.3093976 54.9214871,35.9762838 54.9214871,35.5862971 L54.9214871,14.7707507 C54.9214871,14.3807639 55.0631061,14.0476501 55.3463439,13.7714095 C55.6295817,13.4951688 55.9877943,13.3570485 56.4209816,13.3570485 C56.8208469,13.3570485 57.1623984,13.4951688 57.4456362,13.7714095 C57.7288741,14.0476501 57.8704931,14.3807639 57.8704931,14.7707507 L57.8704931,15.9894595 C58.2370362,15.2419848 58.836834,14.6163809 59.6698865,14.1126479 C60.5029391,13.608915 61.3526527,13.3570485 62.2190273,13.3570485 C63.7185215,13.3570485 64.9264481,13.6982869 65.8428056,14.3807639 C66.7591638,15.0632408 67.4672581,16.0707068 67.9670898,17.4031617 C68.1337005,17.8581464 68.0920473,18.3050062 67.8421315,18.7437414 C67.5922164,19.1824766 67.1840202,19.4018441 66.6175449,19.4018441 C66.1177132,19.4018441 65.7428392,19.2231002 65.492924,18.8656123 C65.2430082,18.5081244 64.9930924,18.1181375 64.7431766,17.6956519 C64.4932607,17.2731661 64.1600399,16.8994287 63.7435133,16.5744397 C63.3269873,16.2494507 62.7021975,16.1194551 61.8691452,16.1844529 C61.3359916,16.2169518 60.8278295,16.3631969 60.3446591,16.6231881 C59.8614886,16.8831793 59.4366318,17.216293 59.0700887,17.6225293 C58.7035456,18.0287656 58.4119772,18.4756255 58.1953836,18.963109 C57.9787899,19.4505925 57.8704931,19.9543255 57.8704931,20.4743079 L57.8704931,35.5862971 Z M76.8590926,6.43478251 C76.8590926,7.01976269 76.6424989,7.52349567 76.2093116,7.9459814 C75.7761242,8.36846714 75.2596318,8.57971 74.6598338,8.57971 C74.0600357,8.57971 73.5435433,8.36846714 73.110356,7.9459814 C72.6771686,7.52349567 72.460575,7.01976269 72.460575,6.43478251 C72.460575,5.81730339 72.6771686,5.3135704 73.110356,4.92358356 C73.5435433,4.53359677 74.0600357,4.33860332 74.6598338,4.33860332 C75.2929534,4.33860332 75.8177768,4.53359677 76.2343027,4.92358356 C76.6508293,5.3135704 76.8590926,5.81730339 76.8590926,6.43478251 Z M76.159328,35.5862971 C76.159328,35.9762838 76.0093787,36.3093976 75.7094799,36.5856383 C75.4095812,36.8618789 75.0596989,36.9999992 74.6598338,36.9999992 C74.2599686,36.9999992 73.9184167,36.8618789 73.6351794,36.5856383 C73.3519414,36.3093976 73.2103224,35.9762838 73.2103224,35.5862971 L73.2103224,14.7707507 C73.2103224,14.3807639 73.3519414,14.0476501 73.6351794,13.7714095 C73.9184167,13.4951688 74.2599686,13.3570485 74.6598338,13.3570485 C75.0596989,13.3570485 75.4095812,13.4951688 75.7094799,13.7714095 C76.0093787,14.0476501 76.159328,14.3807639 76.159328,14.7707507 L76.159328,35.5862971 Z M100.995956,14.7707507 C100.995956,14.9332452 100.962634,15.1119891 100.89599,15.3069825 L92.5488034,36.1225289 C92.2822268,36.7075092 91.8157174,36.9999992 91.1492756,36.9999992 C90.8826984,36.9999992 90.6161218,36.918752 90.3495452,36.7562575 C90.082968,36.593763 89.8996965,36.3825201 89.7997301,36.1225289 L81.4525442,15.3069825 C81.3858999,15.1119891 81.3525778,14.9332452 81.3525778,14.7707507 C81.3525778,14.3807639 81.4941967,14.0476501 81.7774347,13.7714095 C82.0606727,13.4951688 82.4022239,13.3570485 82.8020891,13.3570485 C83.1019878,13.3570485 83.3852258,13.4382958 83.651803,13.6007903 C83.9183796,13.7632848 84.1016511,13.9745276 84.2016176,14.2345188 L91.1492756,32.6126476 L98.1469166,14.2345188 C98.3801716,13.6495386 98.8300197,13.3570485 99.4964621,13.3570485 C99.8963273,13.3570485 100.246209,13.4951688 100.546108,13.7714095 C100.846007,14.0476501 100.995956,14.3807639 100.995956,14.7707507 Z M127.482028,24.1791826 C127.51535,24.5691695 127.382062,24.9022832 127.082163,25.1785239 C126.782264,25.4547645 126.432382,25.5928849 126.032517,25.5928849 L106.239189,25.5928849 C106.305833,26.7953442 106.589071,27.9165563 107.088902,28.9565211 C107.588734,29.996486 108.255176,30.8983305 109.088229,31.6620547 C109.921281,32.4257789 110.879291,33.0270085 111.96226,33.4657438 C113.045228,33.9044789 114.203171,34.1238465 115.436089,34.1238465 C116.135853,34.1238465 116.768973,34.0669734 117.335449,33.9532273 C117.901924,33.8394811 118.435078,33.6688618 118.93491,33.4413696 C119.434741,33.2138772 119.917911,32.9376366 120.384421,32.6126476 C120.85093,32.2876586 121.350762,31.9139212 121.883915,31.4914355 C122.050526,31.3614399 122.208806,31.2639432 122.358756,31.1989453 C122.508705,31.1339476 122.700307,31.1014486 122.933561,31.1014486 C123.333427,31.1014486 123.683309,31.239569 123.983208,31.5158096 C124.283107,31.7920503 124.433056,32.1251641 124.433056,32.5151509 C124.433056,32.7426432 124.391404,32.9295119 124.308098,33.0757569 C124.224793,33.222002 124.116496,33.3763717 123.983208,33.5388662 C123.516699,34.0913476 122.941892,34.5788311 122.258789,35.0013168 C121.575686,35.4238026 120.85093,35.7812905 120.084522,36.0737806 C119.318114,36.3662707 118.535044,36.593763 117.735314,36.7562575 C116.935584,36.918752 116.169175,36.9999992 115.436089,36.9999992 C113.769984,36.9999992 112.195515,36.6912597 110.712681,36.0737806 C109.229848,35.4563014 107.938616,34.61133 106.838987,33.5388662 C105.739357,32.4664025 104.872983,31.2151948 104.239863,29.7852431 C103.606743,28.3552915 103.290183,26.8278431 103.290183,25.202898 C103.290183,23.577953 103.606743,22.0423799 104.239863,20.5961788 C104.872983,19.1499777 105.739357,17.8906452 106.838987,16.8181815 C107.938616,15.7457177 109.229848,14.9007463 110.712681,14.2832672 C112.195515,13.665788 113.769984,13.3570485 115.436089,13.3570485 C117.035549,13.3570485 118.543375,13.6170397 119.959564,14.1370221 C121.375753,14.6570045 122.633663,15.3963546 123.733292,16.3550722 C124.832921,17.3137897 125.715957,18.4431265 126.382399,19.7430826 C127.048841,21.0430386 127.415384,22.4729903 127.482028,24.0329376 L127.482028,24.1791826 Z M124.233123,22.7167321 C123.966547,21.741765 123.550021,20.85617 122.983545,20.0599469 C122.417069,19.2637238 121.742297,18.5812469 120.959227,18.0125161 C120.176158,17.4437853 119.318114,17.0050502 118.385095,16.6963106 C117.452076,16.3875711 116.469074,16.2332013 115.436089,16.2332013 C114.403104,16.2332013 113.411771,16.3956958 112.462091,16.7206848 C111.512412,17.0456738 110.654367,17.4925337 109.887959,18.0612645 C109.121551,18.6299952 108.446778,19.3124722 107.863641,20.1086953 C107.280505,20.9049183 106.855648,21.774264 106.589071,22.7167321 L124.233123,22.7167321 Z M134.824553,34.8550717 C134.824553,35.440052 134.60796,35.943785 134.174772,36.3662707 C133.741585,36.7887564 133.225093,36.9999992 132.625294,36.9999992 C132.025497,36.9999992 131.509005,36.7887564 131.075817,36.3662707 C130.64263,35.943785 130.426036,35.440052 130.426036,34.8550717 C130.426036,34.2375926 130.634299,33.7338597 131.050826,33.3438728 C131.467351,32.9538861 131.992175,32.7588926 132.625294,32.7588926 C133.258415,32.7588926 133.783238,32.9538861 134.199764,33.3438728 C134.61629,33.7338597 134.824553,34.2375926 134.824553,34.8550717 Z M156.31231,14.7707507 C156.31231,14.9332452 156.278988,15.1119891 156.212344,15.3069825 L147.865158,36.1225289 C147.598581,36.7075092 147.132071,36.9999992 146.465629,36.9999992 C146.199053,36.9999992 145.932476,36.918752 145.665899,36.7562575 C145.399323,36.593763 145.21605,36.3825201 145.116085,36.1225289 L136.768898,15.3069825 C136.702254,15.1119891 136.668932,14.9332452 136.668932,14.7707507 C136.668932,14.3807639 136.810551,14.0476501 137.093789,13.7714095 C137.377027,13.4951688 137.718578,13.3570485 138.118443,13.3570485 C138.418342,13.3570485 138.70158,13.4382958 138.968157,13.6007903 C139.234733,13.7632848 139.418005,13.9745276 139.517971,14.2345188 L146.465629,32.6126476 L153.46327,14.2345188 C153.696525,13.6495386 154.146374,13.3570485 154.812816,13.3570485 C155.212681,13.3570485 155.562563,13.4951688 155.862462,13.7714095 C156.162361,14.0476501 156.31231,14.3807639 156.31231,14.7707507 Z M178,35.5862971 C178,35.9762838 177.858381,36.3093976 177.575143,36.5856383 C177.291905,36.8618789 176.950354,36.9999992 176.550489,36.9999992 C176.150623,36.9999992 175.800741,36.8618789 175.500842,36.5856383 C175.200943,36.3093976 175.050994,35.9762838 175.050994,35.5862971 L175.050994,21.6930167 C175.050994,20.945542 174.901044,20.2386908 174.601146,19.5724634 C174.301247,18.9062359 173.901382,18.3293804 173.40155,17.8418969 C172.901718,17.3544134 172.310251,16.9644265 171.627148,16.6719364 C170.944045,16.3794463 170.219289,16.2332013 169.452881,16.2332013 C168.686472,16.2332013 167.961717,16.3794463 167.278614,16.6719364 C166.595511,16.9644265 166.004043,17.3544134 165.504212,17.8418969 C165.004381,18.3293804 164.604516,18.9062359 164.304616,19.5724634 C164.004717,20.2386908 163.854768,20.945542 163.854768,21.6930167 C163.854768,21.7580145 163.838107,21.831137 163.804785,21.9123843 C163.771462,21.9936315 163.754802,22.0830035 163.754802,22.1805002 L163.754802,35.5862971 C163.754802,35.9762838 163.613183,36.3093976 163.329945,36.5856383 C163.046707,36.8618789 162.705155,36.9999992 162.30529,36.9999992 C161.872103,36.9999992 161.51389,36.8618789 161.230652,36.5856383 C160.947414,36.3093976 160.805795,35.9762838 160.805795,35.5862971 L160.805795,14.4782606 C160.805795,14.0557749 160.947414,13.7064117 161.230652,13.430171 C161.51389,13.1539303 161.872103,13.01581 162.30529,13.01581 C162.671833,13.01581 162.955071,13.0970573 163.155004,13.2595518 C163.354936,13.4220463 163.496555,13.6251644 163.579861,13.8689062 C163.663166,14.1126479 163.713149,14.3807639 163.72981,14.673254 C163.746471,14.9657441 163.754802,15.2419848 163.754802,15.501976 C164.52121,14.819499 165.395915,14.2913919 166.378917,13.9176546 C167.361919,13.5439172 168.386574,13.3570485 169.452881,13.3570485 C170.619155,13.3570485 171.718784,13.5764161 172.751769,14.0151512 C173.784754,14.4538864 174.692781,15.0551161 175.475851,15.8188403 C176.25892,16.5825644 176.875379,17.4681595 177.325227,18.4756255 C177.775076,19.4830914 178,20.5555551 178,21.6930167 L178,35.5862971 Z" id="Shape"></path>
            </g>
        </g>
    </g>
</svg>